<svg width="109" height="109" viewBox="0 0 109 109" fill="none" xmlns="http://www.w3.org/2000/svg">
<g id="Group 1">
<g id="outside_1">
<mask id="path-1-outside-1_77_1232" maskUnits="userSpaceOnUse" x="90.5" y="46" width="13" height="14" fill="black">
<rect fill="white" x="90.5" y="46" width="13" height="14"/>
<path id="paisa-01" d="M100.56 52.5021C100.24 52.6521 99.86 52.7721 99.42 52.8621C98.99 52.9621 98.555 53.0121 98.115 53.0121C97.985 53.0121 97.81 53.0021 97.59 52.9821C97.99 53.6821 98.19 54.4321 98.19 55.2321C98.19 56.6621 97.5 57.3771 96.12 57.3771C95.46 57.3771 94.955 57.2071 94.605 56.8671C94.265 56.5271 94.095 56.0221 94.095 55.3521C94.095 54.9621 94.135 54.6171 94.215 54.3171H95.295C95.215 54.6071 95.175 54.9221 95.175 55.2621C95.175 55.7021 95.245 56.0071 95.385 56.1771C95.535 56.3571 95.785 56.4471 96.135 56.4471C96.495 56.4471 96.745 56.3521 96.885 56.1621C97.035 55.9821 97.11 55.6621 97.11 55.2021C97.11 54.7521 97.04 54.3021 96.9 53.8521C96.76 53.4021 96.525 52.8921 96.195 52.3221C95.795 51.8621 95.58 51.1121 95.55 50.0721L91.515 53.1921H91.5V51.7971L95.685 48.6471H96.705V49.2471C96.705 50.1971 96.815 50.8821 97.035 51.3021C97.255 51.7221 97.68 51.9321 98.31 51.9321C98.71 51.9321 99.115 51.8571 99.525 51.7071C99.935 51.5571 100.28 51.3671 100.56 51.1371V47.9721H101.7V58.0221H100.56V52.5021Z"/>
</mask>
<path d="M100.56 52.5021C100.24 52.6521 99.86 52.7721 99.42 52.8621C98.99 52.9621 98.555 53.0121 98.115 53.0121C97.985 53.0121 97.81 53.0021 97.59 52.9821C97.99 53.6821 98.19 54.4321 98.19 55.2321C98.19 56.6621 97.5 57.3771 96.12 57.3771C95.46 57.3771 94.955 57.2071 94.605 56.8671C94.265 56.5271 94.095 56.0221 94.095 55.3521C94.095 54.9621 94.135 54.6171 94.215 54.3171H95.295C95.215 54.6071 95.175 54.9221 95.175 55.2621C95.175 55.7021 95.245 56.0071 95.385 56.1771C95.535 56.3571 95.785 56.4471 96.135 56.4471C96.495 56.4471 96.745 56.3521 96.885 56.1621C97.035 55.9821 97.11 55.6621 97.11 55.2021C97.11 54.7521 97.04 54.3021 96.9 53.8521C96.76 53.4021 96.525 52.8921 96.195 52.3221C95.795 51.8621 95.58 51.1121 95.55 50.0721L91.515 53.1921H91.5V51.7971L95.685 48.6471H96.705V49.2471C96.705 50.1971 96.815 50.8821 97.035 51.3021C97.255 51.7221 97.68 51.9321 98.31 51.9321C98.71 51.9321 99.115 51.8571 99.525 51.7071C99.935 51.5571 100.28 51.3671 100.56 51.1371V47.9721H101.7V58.0221H100.56V52.5021Z" fill="#2E55B8"/>
<path d="M100.56 52.5021H101.56V50.9289L100.136 51.5966L100.56 52.5021ZM99.42 52.8621L99.2196 51.8824L99.2065 51.885L99.1935 51.8881L99.42 52.8621ZM97.59 52.9821L97.6805 51.9862L95.7699 51.8125L96.7218 53.4782L97.59 52.9821ZM94.605 56.8671L93.8979 57.5742L93.903 57.5793L93.9082 57.5843L94.605 56.8671ZM94.215 54.3171V53.3171H93.4467L93.2488 54.0594L94.215 54.3171ZM95.295 54.3171L96.259 54.583L96.6082 53.3171H95.295V54.3171ZM95.385 56.1771L94.6131 56.8128L94.6168 56.8173L95.385 56.1771ZM96.885 56.1621L96.1168 55.5219L96.0977 55.5448L96.0799 55.5689L96.885 56.1621ZM96.9 53.8521L95.9451 54.1491L96.9 53.8521ZM96.195 52.3221L97.0604 51.821L97.0124 51.7382L96.9496 51.6659L96.195 52.3221ZM95.55 50.0721L96.5496 50.0432L96.4929 48.0789L94.9383 49.281L95.55 50.0721ZM91.515 53.1921V54.1921H91.8565L92.1267 53.9832L91.515 53.1921ZM91.5 53.1921H90.5V54.1921H91.5V53.1921ZM91.5 51.7971L90.8986 50.9981L90.5 51.2981V51.7971H91.5ZM95.685 48.6471V47.6471H95.3507L95.0836 47.8481L95.685 48.6471ZM96.705 48.6471H97.705V47.6471H96.705V48.6471ZM97.035 51.3021L96.1492 51.7661V51.7661L97.035 51.3021ZM99.525 51.7071L99.8686 52.6462L99.525 51.7071ZM100.56 51.1371L101.195 51.9098L101.56 51.6098V51.1371H100.56ZM100.56 47.9721V46.9721H99.56V47.9721H100.56ZM101.7 47.9721H102.7V46.9721H101.7V47.9721ZM101.7 58.0221V59.0221H102.7V58.0221H101.7ZM100.56 58.0221H99.56V59.0221H100.56V58.0221ZM100.136 51.5966C99.9033 51.7055 99.602 51.8041 99.2196 51.8824L99.6204 53.8418C100.118 53.74 100.577 53.5986 100.984 53.4075L100.136 51.5966ZM99.1935 51.8881C98.8375 51.9708 98.4785 52.0121 98.115 52.0121V54.0121C98.6315 54.0121 99.1425 53.9533 99.6465 53.8361L99.1935 51.8881ZM98.115 52.0121C98.0289 52.0121 97.8881 52.005 97.6805 51.9862L97.4995 53.978C97.7319 53.9991 97.9411 54.0121 98.115 54.0121V52.0121ZM96.7218 53.4782C97.0361 54.0283 97.19 54.6075 97.19 55.2321H99.19C99.19 54.2566 98.9439 53.3358 98.4582 52.4859L96.7218 53.4782ZM97.19 55.2321C97.19 55.8017 97.0521 56.0436 96.9529 56.1464C96.8601 56.2426 96.6466 56.3771 96.12 56.3771V58.3771C96.9734 58.3771 97.7949 58.1541 98.3921 57.5352C98.9829 56.923 99.19 56.0925 99.19 55.2321H97.19ZM96.12 56.3771C95.6263 56.3771 95.4072 56.2522 95.3018 56.1498L93.9082 57.5843C94.5028 58.162 95.2937 58.3771 96.12 58.3771V56.3771ZM95.3121 56.16C95.2233 56.0711 95.095 55.8629 95.095 55.3521H93.095C93.095 56.1812 93.3067 56.983 93.8979 57.5742L95.3121 56.16ZM95.095 55.3521C95.095 55.0279 95.1285 54.7725 95.1812 54.5747L93.2488 54.0594C93.1415 54.4617 93.095 54.8962 93.095 55.3521H95.095ZM94.215 55.3171H95.295V53.3171H94.215V55.3171ZM94.331 54.0511C94.2242 54.4382 94.175 54.8437 94.175 55.2621H96.175C96.175 55.0005 96.2058 54.776 96.259 54.583L94.331 54.0511ZM94.175 55.2621C94.175 55.7382 94.2366 56.3556 94.6131 56.8128L96.1569 55.5414C96.2181 55.6157 96.2161 55.6579 96.2022 55.5971C96.1893 55.5409 96.175 55.4346 96.175 55.2621H94.175ZM94.6168 56.8173C95.0352 57.3194 95.6376 57.4471 96.135 57.4471V55.4471C96.0898 55.4471 96.0587 55.4441 96.0396 55.4413C96.0205 55.4384 96.0165 55.4361 96.0237 55.4387C96.0314 55.4414 96.0505 55.4493 96.0757 55.4663C96.1015 55.4837 96.1286 55.5073 96.1532 55.5369L94.6168 56.8173ZM96.135 57.4471C96.6404 57.4471 97.2785 57.3138 97.6901 56.7553L96.0799 55.5689C96.1067 55.5325 96.1379 55.5024 96.1694 55.4794C96.2001 55.4569 96.225 55.4457 96.2373 55.441C96.2575 55.4333 96.233 55.4471 96.135 55.4471V57.4471ZM97.6532 56.8023C98.0419 56.3358 98.11 55.7034 98.11 55.2021H96.11C96.11 55.3832 96.0947 55.4967 96.0801 55.5589C96.0647 55.6247 96.0604 55.5896 96.1168 55.5219L97.6532 56.8023ZM98.11 55.2021C98.11 54.6467 98.0234 54.0966 97.8549 53.555L95.9451 54.1491C96.0566 54.5075 96.11 54.8575 96.11 55.2021H98.11ZM97.8549 53.555C97.6859 53.0121 97.4142 52.4321 97.0604 51.821L95.3296 52.8231C95.6358 53.352 95.8341 53.7921 95.9451 54.1491L97.8549 53.555ZM96.9496 51.6659C96.7765 51.4668 96.5772 51.0008 96.5496 50.0432L94.5504 50.1009C94.5828 51.2233 94.8135 52.2573 95.4404 52.9782L96.9496 51.6659ZM94.9383 49.281L90.9033 52.401L92.1267 53.9832L96.1617 50.8632L94.9383 49.281ZM91.515 52.1921H91.5V54.1921H91.515V52.1921ZM92.5 53.1921V51.7971H90.5V53.1921H92.5ZM92.1014 52.596L96.2864 49.446L95.0836 47.8481L90.8986 50.9981L92.1014 52.596ZM95.685 49.6471H96.705V47.6471H95.685V49.6471ZM95.705 48.6471V49.2471H97.705V48.6471H95.705ZM95.705 49.2471C95.705 50.2274 95.8107 51.1199 96.1492 51.7661L97.9208 50.8381C97.8193 50.6443 97.705 50.1667 97.705 49.2471H95.705ZM96.1492 51.7661C96.599 52.6248 97.45 52.9321 98.31 52.9321V50.9321C98.1003 50.9321 97.9989 50.8964 97.9617 50.878C97.9448 50.8697 97.9388 50.8639 97.9372 50.8623C97.9356 50.8607 97.9296 50.8548 97.9208 50.8381L96.1492 51.7661ZM98.31 52.9321C98.8375 52.9321 99.3586 52.8328 99.8686 52.6462L99.1814 50.7679C98.8714 50.8814 98.5825 50.9321 98.31 50.9321V52.9321ZM99.8686 52.6462C100.363 52.4652 100.812 52.2242 101.195 51.9098L99.9253 50.3643C99.748 50.51 99.5067 50.6489 99.1814 50.7679L99.8686 52.6462ZM101.56 51.1371V47.9721H99.56V51.1371H101.56ZM100.56 48.9721H101.7V46.9721H100.56V48.9721ZM100.7 47.9721V58.0221H102.7V47.9721H100.7ZM101.7 57.0221H100.56V59.0221H101.7V57.0221ZM101.56 58.0221V52.5021H99.56V58.0221H101.56Z" fill="#2E55B8" mask="url(#path-1-outside-1_77_1232)"/>
</g>
<g id="outside_2">
<mask id="path-3-outside-2_77_1232" maskUnits="userSpaceOnUse" x="76.0819" y="74.125" width="18.9576" height="19.0809" fill="black">
<rect fill="white" x="76.0819" y="74.125" width="18.9576" height="19.0809"/>
<path d="M88.6079 85.5723C88.2663 85.4815 87.8981 85.3292 87.5032 85.1153C87.1095 84.9155 86.7441 84.6742 86.4071 84.3914C86.3075 84.3078 86.1798 84.1877 86.0242 84.0309C85.8806 84.8243 85.5517 85.5274 85.0375 86.1402C84.1183 87.2357 83.1302 87.3399 82.073 86.4528C81.5674 86.0286 81.2899 85.5737 81.2403 85.0883C81.1984 84.6093 81.3928 84.1132 81.8234 83.5999C82.0741 83.3012 82.3265 83.0626 82.5806 82.8842L83.408 83.5784C83.1603 83.7491 82.9272 83.9647 82.7086 84.2252C82.4258 84.5622 82.2834 84.8409 82.2813 85.0611C82.2805 85.2954 82.4142 85.5251 82.6823 85.75C82.9581 85.9814 83.2107 86.0694 83.44 86.0138C83.6706 85.9723 83.9338 85.7754 84.2295 85.423C84.5187 85.0783 84.7544 84.6886 84.9364 84.2539C85.1184 83.8192 85.2662 83.2774 85.3798 82.6287C85.369 82.0192 85.6864 81.3064 86.3319 80.4905L81.2355 80.2869L81.224 80.2772L82.1207 79.2086L87.3513 79.4856L88.1327 80.1413L87.747 80.6009C87.1364 81.3286 86.7803 81.9241 86.6789 82.3872C86.5775 82.8504 86.768 83.2844 87.2506 83.6894C87.5571 83.9465 87.9155 84.1494 88.326 84.298C88.7365 84.4467 89.1229 84.5229 89.4853 84.5267L91.5197 82.1021L92.393 82.8349L85.933 90.5337L85.0597 89.8009L88.6079 85.5723Z"/>
</mask>
<path d="M88.6079 85.5723C88.2663 85.4815 87.8981 85.3292 87.5032 85.1153C87.1095 84.9155 86.7441 84.6742 86.4071 84.3914C86.3075 84.3078 86.1798 84.1877 86.0242 84.0309C85.8806 84.8243 85.5517 85.5274 85.0375 86.1402C84.1183 87.2357 83.1302 87.3399 82.073 86.4528C81.5674 86.0286 81.2899 85.5737 81.2403 85.0883C81.1984 84.6093 81.3928 84.1132 81.8234 83.5999C82.0741 83.3012 82.3265 83.0626 82.5806 82.8842L83.408 83.5784C83.1603 83.7491 82.9272 83.9647 82.7086 84.2252C82.4258 84.5622 82.2834 84.8409 82.2813 85.0611C82.2805 85.2954 82.4142 85.5251 82.6823 85.75C82.9581 85.9814 83.2107 86.0694 83.44 86.0138C83.6706 85.9723 83.9338 85.7754 84.2295 85.423C84.5187 85.0783 84.7544 84.6886 84.9364 84.2539C85.1184 83.8192 85.2662 83.2774 85.3798 82.6287C85.369 82.0192 85.6864 81.3064 86.3319 80.4905L81.2355 80.2869L81.224 80.2772L82.1207 79.2086L87.3513 79.4856L88.1327 80.1413L87.747 80.6009C87.1364 81.3286 86.7803 81.9241 86.6789 82.3872C86.5775 82.8504 86.768 83.2844 87.2506 83.6894C87.5571 83.9465 87.9155 84.1494 88.326 84.298C88.7365 84.4467 89.1229 84.5229 89.4853 84.5267L91.5197 82.1021L92.393 82.8349L85.933 90.5337L85.0597 89.8009L88.6079 85.5723Z" fill="#2E55B8"/>
<path d="M88.6079 85.5723L89.3739 86.2151L90.3851 85.01L88.8647 84.6059L88.6079 85.5723ZM87.5032 85.1153L87.9794 84.236L87.9676 84.2296L87.9557 84.2236L87.5032 85.1153ZM86.0242 84.0309L86.7337 83.3262L85.3817 81.9651L85.0401 83.8529L86.0242 84.0309ZM81.2403 85.0883L80.2441 85.1755L80.2447 85.1827L80.2455 85.1899L81.2403 85.0883ZM82.5806 82.8842L83.2234 82.1182L82.6349 81.6243L82.0061 82.0657L82.5806 82.8842ZM83.408 83.5784L83.9755 84.4018L85.0567 83.6565L84.0508 82.8124L83.408 83.5784ZM82.2813 85.0611L81.2814 85.0519L81.2813 85.0577L82.2813 85.0611ZM83.44 86.0138L83.263 85.0296L83.2337 85.0349L83.2046 85.0419L83.44 86.0138ZM84.9364 84.2539L84.014 83.8677L84.9364 84.2539ZM85.3798 82.6287L86.3648 82.8011L86.3813 82.7068L86.3796 82.611L85.3798 82.6287ZM86.3319 80.4905L87.1162 81.1109L88.3355 79.5697L86.3719 79.4913L86.3319 80.4905ZM81.2355 80.2869L80.5927 81.0529L80.8543 81.2724L81.1955 81.2861L81.2355 80.2869ZM81.224 80.2772L80.4579 79.6344L79.8151 80.4005L80.5812 81.0433L81.224 80.2772ZM82.1207 79.2086L82.1735 78.21L81.6753 78.1836L81.3546 78.5658L82.1207 79.2086ZM87.3513 79.4856L87.9941 78.7196L87.738 78.5047L87.4042 78.487L87.3513 79.4856ZM88.1327 80.1413L88.8987 80.7841L89.5415 80.018L88.7755 79.3752L88.1327 80.1413ZM86.6789 82.3872L85.702 82.1733L85.702 82.1733L86.6789 82.3872ZM88.326 84.298L87.9856 85.2383L88.326 84.298ZM89.4853 84.5267L89.4748 85.5266L89.9475 85.5316L90.2513 85.1695L89.4853 84.5267ZM91.5197 82.1021L92.1625 81.3361L91.3964 80.6933L90.7536 81.4593L91.5197 82.1021ZM92.393 82.8349L93.159 83.4777L93.8018 82.7117L93.0358 82.0689L92.393 82.8349ZM85.933 90.5337L85.2902 91.2997L86.0562 91.9425L86.699 91.1764L85.933 90.5337ZM85.0597 89.8009L84.2936 89.1581L83.6508 89.9241L84.4169 90.5669L85.0597 89.8009ZM88.8647 84.6059C88.6168 84.54 88.3226 84.4219 87.9794 84.236L87.0269 85.9946C87.4735 86.2365 87.9158 86.4231 88.351 86.5388L88.8647 84.6059ZM87.9557 84.2236C87.6298 84.0582 87.3283 83.859 87.0498 83.6253L85.7643 85.1574C86.1599 85.4894 86.5892 85.7729 87.0506 86.007L87.9557 84.2236ZM87.0498 83.6253C86.9839 83.57 86.8805 83.4741 86.7337 83.3262L85.3147 84.7356C85.4792 84.9013 85.6311 85.0457 85.7643 85.1574L87.0498 83.6253ZM85.0401 83.8529C84.9273 84.4764 84.6729 85.019 84.2715 85.4974L85.8036 86.783C86.4306 86.0358 86.8339 85.1722 87.0082 84.209L85.0401 83.8529ZM84.2715 85.4974C83.9053 85.9338 83.6442 86.0305 83.5021 86.0455C83.3692 86.0595 83.1192 86.0253 82.7158 85.6868L81.4302 87.2189C82.084 87.7674 82.8566 88.1246 83.7119 88.0344C84.558 87.9452 85.2505 87.4421 85.8036 86.783L84.2715 85.4974ZM82.7158 85.6868C82.3376 85.3694 82.25 85.1329 82.2351 84.9867L80.2455 85.1899C80.3297 86.0145 80.7972 86.6877 81.4302 87.2189L82.7158 85.6868ZM82.2365 85.0011C82.2255 84.876 82.2611 84.6341 82.5895 84.2427L81.0574 82.9571C80.5244 83.5923 80.1712 84.3426 80.2441 85.1755L82.2365 85.0011ZM82.5895 84.2427C82.7978 83.9944 82.9877 83.8202 83.1552 83.7027L82.0061 82.0657C81.6653 82.3049 81.3504 82.6079 81.0574 82.9571L82.5895 84.2427ZM81.9379 83.6502L82.7652 84.3445L84.0508 82.8124L83.2234 82.1182L81.9379 83.6502ZM82.8404 82.7551C82.5099 82.9829 82.2115 83.2619 81.9426 83.5824L83.4747 84.868C83.6428 84.6676 83.8107 84.5154 83.9755 84.4018L82.8404 82.7551ZM81.9426 83.5824C81.6365 83.9471 81.2868 84.4596 81.2814 85.0519L83.2813 85.0703C83.2804 85.1666 83.2517 85.1976 83.2801 85.1421C83.3064 85.0907 83.3638 85.0001 83.4747 84.868L81.9426 83.5824ZM81.2813 85.0577C81.2791 85.7113 81.6585 86.1964 82.0395 86.5161L83.3251 84.984C83.2905 84.9549 83.2685 84.9327 83.2557 84.9182C83.243 84.9038 83.2414 84.8994 83.2452 84.906C83.2493 84.9131 83.2589 84.9314 83.2673 84.9606C83.2759 84.9905 83.2815 85.026 83.2813 85.0645L81.2813 85.0577ZM82.0395 86.5161C82.4267 86.8409 83.0012 87.149 83.6754 86.9857L83.2046 85.0419C83.2485 85.0313 83.2918 85.0282 83.3307 85.0308C83.3686 85.0334 83.3949 85.0408 83.4073 85.0451C83.4278 85.0522 83.4002 85.047 83.3251 84.984L82.0395 86.5161ZM83.617 86.998C84.2146 86.8906 84.6733 86.4499 84.9955 86.0658L83.4634 84.7802C83.347 84.919 83.2623 84.9961 83.2112 85.0344C83.1571 85.0749 83.1763 85.0452 83.263 85.0296L83.617 86.998ZM84.9955 86.0658C85.3525 85.6403 85.6397 85.1633 85.8588 84.6401L84.014 83.8677C83.869 84.2139 83.6849 84.5163 83.4634 84.7802L84.9955 86.0658ZM85.8588 84.6401C86.0784 84.1156 86.243 83.4967 86.3648 82.8011L84.3948 82.4562C84.2894 83.0582 84.1584 83.5227 84.014 83.8677L85.8588 84.6401ZM86.3796 82.611C86.375 82.3473 86.5218 81.8622 87.1162 81.1109L85.5477 79.87C84.851 80.7507 84.3631 81.6911 84.3799 82.6463L86.3796 82.611ZM86.3719 79.4913L81.2754 79.2877L81.1955 81.2861L86.292 81.4897L86.3719 79.4913ZM81.8782 79.5208L81.8668 79.5112L80.5812 81.0433L80.5927 81.0529L81.8782 79.5208ZM81.99 80.92L82.8867 79.8514L81.3546 78.5658L80.4579 79.6344L81.99 80.92ZM82.0678 80.2072L87.2984 80.4842L87.4042 78.487L82.1735 78.21L82.0678 80.2072ZM86.7085 80.2517L87.4899 80.9073L88.7755 79.3752L87.9941 78.7196L86.7085 80.2517ZM87.3667 79.4985L86.981 79.9581L88.5131 81.2437L88.8987 80.7841L87.3667 79.4985ZM86.981 79.9581C86.3508 80.7091 85.8581 81.4607 85.702 82.1733L87.6557 82.6012C87.7025 82.3875 87.9219 81.9482 88.5131 81.2437L86.981 79.9581ZM85.702 82.1733C85.4946 83.1202 85.9491 83.9026 86.6079 84.4554L87.8934 82.9234C87.7328 82.7886 87.678 82.696 87.6614 82.6581C87.6538 82.6409 87.6529 82.6325 87.6527 82.6303C87.6524 82.628 87.6517 82.6197 87.6557 82.6012L85.702 82.1733ZM86.6079 84.4554C87.0119 84.7945 87.4749 85.0534 87.9856 85.2383L88.6665 83.3578C88.3561 83.2454 88.1022 83.0985 87.8934 82.9234L86.6079 84.4554ZM87.9856 85.2383C88.4809 85.4176 88.9795 85.5214 89.4748 85.5266L89.4957 83.5267C89.2663 83.5243 88.9921 83.4757 88.6665 83.3578L87.9856 85.2383ZM90.2513 85.1695L92.2857 82.7449L90.7536 81.4593L88.7192 83.8839L90.2513 85.1695ZM90.8769 82.8682L91.7502 83.601L93.0358 82.0689L92.1625 81.3361L90.8769 82.8682ZM91.6269 82.1921L85.1669 89.8909L86.699 91.1764L93.159 83.4777L91.6269 82.1921ZM86.5757 89.7676L85.7025 89.0348L84.4169 90.5669L85.2902 91.2997L86.5757 89.7676ZM85.8257 90.4437L89.3739 86.2151L87.8418 84.9295L84.2936 89.1581L85.8257 90.4437Z" fill="#2E55B8" mask="url(#path-3-outside-2_77_1232)"/>
</g>
<g id="outside_3">
<mask id="path-5-outside-3_77_1232" maskUnits="userSpaceOnUse" x="12.5787" y="15.8635" width="18.9576" height="19.0809" fill="black">
<rect fill="white" x="12.5787" y="15.8635" width="18.9576" height="19.0809"/>
<path d="M19.0103 23.497C19.3519 23.5878 19.7201 23.7401 20.115 23.954C20.5087 24.1538 20.874 24.3951 21.2111 24.678C21.3107 24.7615 21.4383 24.8817 21.594 25.0384C21.7375 24.2451 22.0664 23.542 22.5806 22.9291C23.4998 21.8337 24.488 21.7295 25.5451 22.6165C26.0507 23.0408 26.3283 23.4956 26.3779 23.981C26.4198 24.46 26.2254 24.9562 25.7947 25.4694C25.544 25.7682 25.2916 26.0067 25.0375 26.1851L24.2102 25.4909C24.4579 25.3202 24.691 25.1046 24.9096 24.8441C25.1924 24.5071 25.3348 24.2284 25.3368 24.0082C25.3376 23.7739 25.204 23.5443 24.9359 23.3193C24.6601 23.0879 24.4075 23 24.1781 23.0555C23.9475 23.097 23.6844 23.2939 23.3887 23.6463C23.0994 23.991 22.8638 24.3808 22.6818 24.8155C22.4998 25.2502 22.352 25.7919 22.2384 26.4407C22.2491 27.0502 21.9317 27.7629 21.2862 28.5789L26.3827 28.7825L26.3942 28.7921L25.4975 29.8607L20.2668 29.5837L19.4855 28.9281L19.8711 28.4684C20.4818 27.7407 20.8378 27.1453 20.9393 26.6821C21.0407 26.2189 20.8501 25.7849 20.3675 25.3799C20.0611 25.1228 19.7026 24.9199 19.2921 24.7713C18.8817 24.6227 18.4952 24.5465 18.1329 24.5427L16.0985 26.9672L15.2252 26.2344L21.6852 18.5357L22.5585 19.2685L19.0103 23.497Z"/>
</mask>
<path d="M19.0103 23.497C19.3519 23.5878 19.7201 23.7401 20.115 23.954C20.5087 24.1538 20.874 24.3951 21.2111 24.678C21.3107 24.7615 21.4383 24.8817 21.594 25.0384C21.7375 24.2451 22.0664 23.542 22.5806 22.9291C23.4998 21.8337 24.488 21.7295 25.5451 22.6165C26.0507 23.0408 26.3283 23.4956 26.3779 23.981C26.4198 24.46 26.2254 24.9562 25.7947 25.4694C25.544 25.7682 25.2916 26.0067 25.0375 26.1851L24.2102 25.4909C24.4579 25.3202 24.691 25.1046 24.9096 24.8441C25.1924 24.5071 25.3348 24.2284 25.3368 24.0082C25.3376 23.7739 25.204 23.5443 24.9359 23.3193C24.6601 23.0879 24.4075 23 24.1781 23.0555C23.9475 23.097 23.6844 23.2939 23.3887 23.6463C23.0994 23.991 22.8638 24.3808 22.6818 24.8155C22.4998 25.2502 22.352 25.7919 22.2384 26.4407C22.2491 27.0502 21.9317 27.7629 21.2862 28.5789L26.3827 28.7825L26.3942 28.7921L25.4975 29.8607L20.2668 29.5837L19.4855 28.9281L19.8711 28.4684C20.4818 27.7407 20.8378 27.1453 20.9393 26.6821C21.0407 26.2189 20.8501 25.7849 20.3675 25.3799C20.0611 25.1228 19.7026 24.9199 19.2921 24.7713C18.8817 24.6227 18.4952 24.5465 18.1329 24.5427L16.0985 26.9672L15.2252 26.2344L21.6852 18.5357L22.5585 19.2685L19.0103 23.497Z" fill="#2E55B8"/>
<path d="M19.0103 23.497L18.2443 22.8542L17.2331 24.0593L18.7534 24.4635L19.0103 23.497ZM20.115 23.954L19.6388 24.8333L19.6505 24.8397L19.6624 24.8458L20.115 23.954ZM21.594 25.0384L20.8845 25.7431L22.2365 27.1043L22.578 25.2164L21.594 25.0384ZM26.3779 23.981L27.3741 23.8939L27.3734 23.8867L27.3727 23.8795L26.3779 23.981ZM25.0375 26.1851L24.3947 26.9512L24.9833 27.445L25.6121 27.0036L25.0375 26.1851ZM24.2102 25.4909L23.6427 24.6676L22.5614 25.4129L23.5674 26.257L24.2102 25.4909ZM25.3368 24.0082L26.3368 24.0174L26.3368 24.0116L25.3368 24.0082ZM24.1781 23.0555L24.3551 24.0398L24.3845 24.0345L24.4135 24.0274L24.1781 23.0555ZM22.6818 24.8155L23.6042 25.2017L22.6818 24.8155ZM22.2384 26.4407L21.2534 26.2682L21.2369 26.3625L21.2385 26.4583L22.2384 26.4407ZM21.2862 28.5789L20.502 27.9584L19.2827 29.4996L21.2463 29.5781L21.2862 28.5789ZM26.3827 28.7825L27.0255 28.0164L26.7639 27.7969L26.4226 27.7833L26.3827 28.7825ZM26.3942 28.7921L27.1602 29.4349L27.803 28.6688L27.037 28.0261L26.3942 28.7921ZM25.4975 29.8607L25.4446 30.8593L25.9428 30.8857L26.2636 30.5035L25.4975 29.8607ZM20.2668 29.5837L19.624 30.3498L19.8801 30.5646L20.2139 30.5823L20.2668 29.5837ZM19.4855 28.9281L18.7194 28.2853L18.0766 29.0513L18.8427 29.6941L19.4855 28.9281ZM20.9393 26.6821L21.9161 26.8961L21.9161 26.896L20.9393 26.6821ZM19.2921 24.7713L19.6326 23.831L19.2921 24.7713ZM18.1329 24.5427L18.1434 23.5427L17.6707 23.5378L17.3669 23.8999L18.1329 24.5427ZM16.0985 26.9672L15.4557 27.7332L16.2217 28.376L16.8645 27.61L16.0985 26.9672ZM15.2252 26.2344L14.4591 25.5916L13.8164 26.3577L14.5824 27.0005L15.2252 26.2344ZM21.6852 18.5357L22.328 17.7696L21.5619 17.1268L20.9192 17.8929L21.6852 18.5357ZM22.5585 19.2685L23.3245 19.9112L23.9673 19.1452L23.2013 18.5024L22.5585 19.2685ZM18.7534 24.4635C19.0014 24.5294 19.2956 24.6475 19.6388 24.8333L20.5912 23.0747C20.1446 22.8328 19.7023 22.6462 19.2672 22.5306L18.7534 24.4635ZM19.6624 24.8458C19.9884 25.0112 20.2899 25.2103 20.5683 25.444L21.8539 23.9119C21.4582 23.5799 21.029 23.2965 20.5676 23.0623L19.6624 24.8458ZM20.5683 25.444C20.6343 25.4994 20.7376 25.5952 20.8845 25.7431L22.3035 24.3337C22.139 24.1681 21.9871 24.0237 21.8539 23.9119L20.5683 25.444ZM22.578 25.2164C22.6908 24.5929 22.9452 24.0503 23.3467 23.5719L21.8146 22.2863C21.1876 23.0336 20.7842 23.8972 20.61 24.8604L22.578 25.2164ZM23.3467 23.5719C23.7128 23.1356 23.9739 23.0389 24.116 23.0239C24.2489 23.0099 24.4989 23.0441 24.9023 23.3826L26.1879 21.8505C25.5342 21.3019 24.7615 20.9447 23.9063 21.0349C23.0602 21.1241 22.3677 21.6272 21.8146 22.2863L23.3467 23.5719ZM24.9023 23.3826C25.2805 23.6999 25.3681 23.9364 25.383 24.0826L27.3727 23.8795C27.2885 23.0548 26.8209 22.3816 26.1879 21.8505L24.9023 23.3826ZM25.3817 24.0682C25.3926 24.1933 25.3571 24.4353 25.0287 24.8266L26.5608 26.1122C27.0937 25.477 27.4469 24.7267 27.3741 23.8939L25.3817 24.0682ZM25.0287 24.8266C24.8203 25.0749 24.6304 25.2491 24.463 25.3667L25.6121 27.0036C25.9528 26.7644 26.2678 26.4614 26.5608 26.1122L25.0287 24.8266ZM25.6803 25.4191L24.853 24.7249L23.5674 26.257L24.3947 26.9512L25.6803 25.4191ZM24.7777 26.3143C25.1083 26.0864 25.4067 25.8074 25.6756 25.4869L24.1435 24.2014C23.9753 24.4018 23.8075 24.554 23.6427 24.6676L24.7777 26.3143ZM25.6756 25.4869C25.9816 25.1222 26.3313 24.6097 26.3368 24.0174L24.3369 23.999C24.3378 23.9027 24.3665 23.8717 24.3381 23.9272C24.3118 23.9786 24.2544 24.0692 24.1435 24.2014L25.6756 25.4869ZM26.3368 24.0116C26.339 23.358 25.9597 22.873 25.5786 22.5533L24.2931 24.0854C24.3277 24.1144 24.3496 24.1367 24.3624 24.1511C24.3752 24.1656 24.3768 24.1699 24.3729 24.1633C24.3688 24.1563 24.3592 24.1379 24.3509 24.1087C24.3423 24.0788 24.3367 24.0433 24.3368 24.0048L26.3368 24.0116ZM25.5786 22.5533C25.1915 22.2284 24.617 21.9203 23.9427 22.0836L24.4135 24.0274C24.3697 24.0381 24.3264 24.0411 24.2875 24.0385C24.2495 24.036 24.2232 24.0285 24.2108 24.0242C24.1904 24.0171 24.218 24.0223 24.2931 24.0854L25.5786 22.5533ZM24.0011 22.0713C23.4036 22.1788 22.9449 22.6195 22.6226 23.0035L24.1547 24.2891C24.2712 24.1503 24.3559 24.0732 24.407 24.035C24.4611 23.9945 24.4418 24.0242 24.3551 24.0398L24.0011 22.0713ZM22.6226 23.0035C22.2656 23.429 21.9784 23.906 21.7594 24.4293L23.6042 25.2017C23.7492 24.8555 23.9332 24.5531 24.1547 24.2891L22.6226 23.0035ZM21.7594 24.4293C21.5398 24.9537 21.3752 25.5727 21.2534 26.2682L23.2234 26.6131C23.3288 26.0111 23.4598 25.5466 23.6042 25.2017L21.7594 24.4293ZM21.2385 26.4583C21.2432 26.7221 21.0963 27.2071 20.502 27.9584L22.0705 29.1993C22.7671 28.3187 23.2551 27.3783 23.2382 26.4231L21.2385 26.4583ZM21.2463 29.5781L26.3428 29.7817L26.4226 27.7833L21.3261 27.5797L21.2463 29.5781ZM25.7399 29.5485L25.7514 29.5581L27.037 28.0261L27.0255 28.0164L25.7399 29.5485ZM25.6282 28.1493L24.7315 29.2179L26.2636 30.5035L27.1602 29.4349L25.6282 28.1493ZM25.5504 28.8621L20.3197 28.5851L20.2139 30.5823L25.4446 30.8593L25.5504 28.8621ZM20.9096 28.8177L20.1283 28.162L18.8427 29.6941L19.624 30.3498L20.9096 28.8177ZM20.2515 29.5709L20.6372 29.1112L19.1051 27.8257L18.7194 28.2853L20.2515 29.5709ZM20.6372 29.1112C21.2673 28.3602 21.76 27.6087 21.9161 26.8961L19.9624 26.4681C19.9156 26.6818 19.6962 27.1212 19.1051 27.8257L20.6372 29.1112ZM21.9161 26.896C22.1235 25.9491 21.6691 25.1667 21.0103 24.6139L19.7247 26.146C19.8854 26.2808 19.9401 26.3733 19.9568 26.4112C19.9644 26.4285 19.9653 26.4368 19.9655 26.4391C19.9657 26.4413 19.9665 26.4497 19.9624 26.4681L21.9161 26.896ZM21.0103 24.6139C20.6062 24.2748 20.1432 24.0159 19.6326 23.831L18.9517 25.7116C19.2621 25.824 19.516 25.9708 19.7247 26.146L21.0103 24.6139ZM19.6326 23.831C19.1373 23.6517 18.6386 23.5479 18.1434 23.5427L18.1224 25.5426C18.3518 25.545 18.626 25.5936 18.9517 25.7116L19.6326 23.831ZM17.3669 23.8999L15.3324 26.3244L16.8645 27.61L18.8989 25.1855L17.3669 23.8999ZM16.7413 26.2012L15.868 25.4684L14.5824 27.0005L15.4557 27.7332L16.7413 26.2012ZM15.9912 26.8772L22.4512 19.1785L20.9192 17.8929L14.4591 25.5916L15.9912 26.8772ZM21.0424 19.3017L21.9157 20.0345L23.2013 18.5024L22.328 17.7696L21.0424 19.3017ZM21.7925 18.6257L18.2443 22.8542L19.7764 24.1398L23.3245 19.9112L21.7925 18.6257Z" fill="#2E55B8" mask="url(#path-5-outside-3_77_1232)"/>
</g>
<g id="outside_4">
<mask id="path-7-outside-4_77_1232" maskUnits="userSpaceOnUse" x="5" y="45.5" width="13" height="14" fill="black">
<rect fill="white" x="5" y="45.5" width="13" height="14"/>
<path d="M7.94 52.9979C8.26 52.8479 8.64 52.7279 9.08 52.6379C9.51 52.5379 9.945 52.4879 10.385 52.4879C10.515 52.4879 10.69 52.4979 10.91 52.5179C10.51 51.8179 10.31 51.0679 10.31 50.2679C10.31 48.8379 11 48.1229 12.38 48.1229C13.04 48.1229 13.545 48.2929 13.895 48.6329C14.235 48.9729 14.405 49.4779 14.405 50.1479C14.405 50.5379 14.365 50.8829 14.285 51.1829H13.205C13.285 50.8929 13.325 50.5779 13.325 50.2379C13.325 49.7979 13.255 49.4929 13.115 49.3229C12.965 49.1429 12.715 49.0529 12.365 49.0529C12.005 49.0529 11.755 49.1479 11.615 49.3379C11.465 49.5179 11.39 49.8379 11.39 50.2979C11.39 50.7479 11.46 51.1979 11.6 51.6479C11.74 52.0979 11.975 52.6079 12.305 53.1779C12.705 53.6379 12.92 54.3879 12.95 55.4279L16.985 52.3079H17V53.7029L12.815 56.8529H11.795V56.2529C11.795 55.3029 11.685 54.6179 11.465 54.1979C11.245 53.7779 10.82 53.5679 10.19 53.5679C9.79 53.5679 9.385 53.6429 8.975 53.7929C8.565 53.9429 8.22 54.1329 7.94 54.3629V57.5279H6.8L6.8 47.4779H7.94V52.9979Z"/>
</mask>
<path d="M7.94 52.9979C8.26 52.8479 8.64 52.7279 9.08 52.6379C9.51 52.5379 9.945 52.4879 10.385 52.4879C10.515 52.4879 10.69 52.4979 10.91 52.5179C10.51 51.8179 10.31 51.0679 10.31 50.2679C10.31 48.8379 11 48.1229 12.38 48.1229C13.04 48.1229 13.545 48.2929 13.895 48.6329C14.235 48.9729 14.405 49.4779 14.405 50.1479C14.405 50.5379 14.365 50.8829 14.285 51.1829H13.205C13.285 50.8929 13.325 50.5779 13.325 50.2379C13.325 49.7979 13.255 49.4929 13.115 49.3229C12.965 49.1429 12.715 49.0529 12.365 49.0529C12.005 49.0529 11.755 49.1479 11.615 49.3379C11.465 49.5179 11.39 49.8379 11.39 50.2979C11.39 50.7479 11.46 51.1979 11.6 51.6479C11.74 52.0979 11.975 52.6079 12.305 53.1779C12.705 53.6379 12.92 54.3879 12.95 55.4279L16.985 52.3079H17V53.7029L12.815 56.8529H11.795V56.2529C11.795 55.3029 11.685 54.6179 11.465 54.1979C11.245 53.7779 10.82 53.5679 10.19 53.5679C9.79 53.5679 9.385 53.6429 8.975 53.7929C8.565 53.9429 8.22 54.1329 7.94 54.3629V57.5279H6.8L6.8 47.4779H7.94V52.9979Z" fill="#2E55B8"/>
<path d="M7.94 52.9979H6.94L6.94 54.5711L8.36443 53.9034L7.94 52.9979ZM9.08 52.6379L9.2804 53.6176L9.29349 53.615L9.30651 53.6119L9.08 52.6379ZM10.91 52.5179L10.8195 53.5138L12.7301 53.6875L11.7782 52.0218L10.91 52.5179ZM13.895 48.6329L14.6021 47.9258L14.597 47.9207L14.5918 47.9157L13.895 48.6329ZM14.285 51.1829V52.1829H15.0533L15.2512 51.4406L14.285 51.1829ZM13.205 51.1829L12.241 50.917L11.8918 52.1829H13.205V51.1829ZM13.115 49.3229L13.8869 48.6872L13.8832 48.6827L13.115 49.3229ZM11.615 49.3379L12.3832 49.9781L12.4023 49.9552L12.4201 49.9311L11.615 49.3379ZM11.6 51.6479L12.5549 51.3509L11.6 51.6479ZM12.305 53.1779L11.4396 53.679L11.4876 53.7618L11.5504 53.8341L12.305 53.1779ZM12.95 55.4279L11.9504 55.4568L12.0071 57.4211L13.5617 56.219L12.95 55.4279ZM16.985 52.3079V51.3079H16.6435L16.3733 51.5168L16.985 52.3079ZM17 52.3079H18V51.3079H17V52.3079ZM17 53.7029L17.6014 54.5019L18 54.2019V53.7029H17ZM12.815 56.8529V57.8529H13.1493L13.4164 57.6519L12.815 56.8529ZM11.795 56.8529H10.795V57.8529H11.795V56.8529ZM11.465 54.1979L12.3508 53.7339V53.7339L11.465 54.1979ZM8.975 53.7929L8.63142 52.8538L8.975 53.7929ZM7.94 54.3629L7.30526 53.5902L6.94 53.8902L6.94 54.3629H7.94ZM7.94 57.5279V58.5279H8.94V57.5279H7.94ZM6.8 57.5279H5.8V58.5279H6.8V57.5279ZM6.8 47.4779V46.4779H5.8V47.4779H6.8ZM7.94 47.4779H8.94L8.94 46.4779H7.94V47.4779ZM8.36443 53.9034C8.59675 53.7945 8.89799 53.6959 9.2804 53.6176L8.8796 51.6582C8.38201 51.76 7.92325 51.9014 7.51557 52.0925L8.36443 53.9034ZM9.30651 53.6119C9.6625 53.5292 10.0215 53.4879 10.385 53.4879V51.4879C9.86849 51.4879 9.3575 51.5467 8.85349 51.6639L9.30651 53.6119ZM10.385 53.4879C10.4711 53.4879 10.6119 53.495 10.8195 53.5138L11.0005 51.522C10.7681 51.5009 10.5589 51.4879 10.385 51.4879V53.4879ZM11.7782 52.0218C11.4639 51.4717 11.31 50.8925 11.31 50.2679H9.31C9.31 51.2434 9.55612 52.1642 10.0418 53.0141L11.7782 52.0218ZM11.31 50.2679C11.31 49.6983 11.4479 49.4564 11.5471 49.3536C11.6399 49.2574 11.8534 49.1229 12.38 49.1229V47.1229C11.5266 47.1229 10.7051 47.3459 10.1079 47.9648C9.51713 48.577 9.31 49.4075 9.31 50.2679H11.31ZM12.38 49.1229C12.8737 49.1229 13.0928 49.2478 13.1982 49.3502L14.5918 47.9157C13.9972 47.338 13.2063 47.1229 12.38 47.1229V49.1229ZM13.1879 49.34C13.2767 49.4289 13.405 49.6371 13.405 50.1479H15.405C15.405 49.3188 15.1933 48.517 14.6021 47.9258L13.1879 49.34ZM13.405 50.1479C13.405 50.4721 13.3715 50.7275 13.3188 50.9253L15.2512 51.4406C15.3585 51.0383 15.405 50.6038 15.405 50.1479H13.405ZM14.285 50.1829H13.205V52.1829H14.285V50.1829ZM14.169 51.4489C14.2758 51.0618 14.325 50.6563 14.325 50.2379H12.325C12.325 50.4995 12.2942 50.724 12.241 50.917L14.169 51.4489ZM14.325 50.2379C14.325 49.7618 14.2634 49.1444 13.8869 48.6872L12.3431 49.9586C12.2819 49.8843 12.2839 49.8421 12.2978 49.9029C12.3107 49.9591 12.325 50.0654 12.325 50.2379H14.325ZM13.8832 48.6827C13.4648 48.1806 12.8624 48.0529 12.365 48.0529V50.0529C12.4102 50.0529 12.4413 50.0559 12.4604 50.0587C12.4795 50.0616 12.4835 50.0639 12.4763 50.0613C12.4686 50.0586 12.4495 50.0507 12.4243 50.0337C12.3985 50.0163 12.3714 49.9927 12.3468 49.9631L13.8832 48.6827ZM12.365 48.0529C11.8596 48.0529 11.2215 48.1862 10.8099 48.7447L12.4201 49.9311C12.3933 49.9675 12.3621 49.9976 12.3306 50.0206C12.2999 50.0431 12.275 50.0543 12.2627 50.059C12.2425 50.0667 12.267 50.0529 12.365 50.0529V48.0529ZM10.8468 48.6977C10.4581 49.1642 10.39 49.7966 10.39 50.2979H12.39C12.39 50.1168 12.4053 50.0033 12.4199 49.9411C12.4353 49.8753 12.4396 49.9104 12.3832 49.9781L10.8468 48.6977ZM10.39 50.2979C10.39 50.8533 10.4766 51.4034 10.6451 51.945L12.5549 51.3509C12.4434 50.9925 12.39 50.6425 12.39 50.2979H10.39ZM10.6451 51.945C10.8141 52.4879 11.0858 53.0679 11.4396 53.679L13.1704 52.6769C12.8642 52.148 12.6659 51.7079 12.5549 51.3509L10.6451 51.945ZM11.5504 53.8341C11.7235 54.0332 11.9228 54.4992 11.9504 55.4568L13.9496 55.3991C13.9172 54.2767 13.6865 53.2427 13.0596 52.5218L11.5504 53.8341ZM13.5617 56.219L17.5967 53.099L16.3733 51.5168L12.3383 54.6368L13.5617 56.219ZM16.985 53.3079H17V51.3079H16.985V53.3079ZM16 52.3079V53.7029H18V52.3079H16ZM16.3986 52.904L12.2136 56.054L13.4164 57.6519L17.6014 54.5019L16.3986 52.904ZM12.815 55.8529H11.795V57.8529H12.815V55.8529ZM12.795 56.8529V56.2529H10.795V56.8529H12.795ZM12.795 56.2529C12.795 55.2726 12.6893 54.3801 12.3508 53.7339L10.5792 54.6619C10.6807 54.8557 10.795 55.3333 10.795 56.2529H12.795ZM12.3508 53.7339C11.901 52.8752 11.05 52.5679 10.19 52.5679V54.5679C10.3997 54.5679 10.5011 54.6036 10.5383 54.622C10.5552 54.6303 10.5612 54.6361 10.5628 54.6377C10.5644 54.6393 10.5704 54.6452 10.5792 54.6619L12.3508 53.7339ZM10.19 52.5679C9.66253 52.5679 9.14143 52.6672 8.63142 52.8538L9.31858 54.7321C9.62857 54.6186 9.91747 54.5679 10.19 54.5679V52.5679ZM8.63142 52.8538C8.13669 53.0348 7.688 53.2758 7.30526 53.5902L8.57474 55.1357C8.752 54.99 8.99331 54.8511 9.31858 54.7321L8.63142 52.8538ZM6.94 54.3629V57.5279H8.94V54.3629H6.94ZM7.94 56.5279H6.8V58.5279H7.94V56.5279ZM7.8 57.5279L7.8 47.4779H5.8L5.8 57.5279H7.8ZM6.8 48.4779H7.94V46.4779H6.8V48.4779ZM6.94 47.4779V52.9979H8.94V47.4779H6.94Z" fill="#2E55B8" mask="url(#path-7-outside-4_77_1232)"/>
</g>
<g id="outside_5">
<mask id="path-9-outside-5_77_1232" maskUnits="userSpaceOnUse" x="46.5" y="5" width="14" height="13" fill="black">
<rect fill="white" x="46.5" y="5" width="14" height="13"/>
<path d="M53.0021 7.94C53.1521 8.26 53.2721 8.64 53.3621 9.08C53.4621 9.51 53.5121 9.945 53.5121 10.385C53.5121 10.515 53.5021 10.69 53.4821 10.91C54.1821 10.51 54.9321 10.31 55.7321 10.31C57.1621 10.31 57.8771 11 57.8771 12.38C57.8771 13.04 57.7071 13.545 57.3671 13.895C57.0271 14.235 56.5221 14.405 55.8521 14.405C55.4621 14.405 55.1171 14.365 54.8171 14.285V13.205C55.1071 13.285 55.4221 13.325 55.7621 13.325C56.2021 13.325 56.5071 13.255 56.6771 13.115C56.8571 12.965 56.9471 12.715 56.9471 12.365C56.9471 12.005 56.8521 11.755 56.6621 11.615C56.4821 11.465 56.1621 11.39 55.7021 11.39C55.2521 11.39 54.8021 11.46 54.3521 11.6C53.9021 11.74 53.3921 11.975 52.8221 12.305C52.3621 12.705 51.6121 12.92 50.5721 12.95L53.6921 16.985V17H52.2971L49.1471 12.815V11.795H49.7471C50.6971 11.795 51.3821 11.685 51.8021 11.465C52.2221 11.245 52.4321 10.82 52.4321 10.19C52.4321 9.79 52.3571 9.385 52.2071 8.975C52.0571 8.565 51.8671 8.22 51.6371 7.94H48.4721V6.8H58.5221V7.94H53.0021Z"/>
</mask>
<path d="M53.0021 7.94C53.1521 8.26 53.2721 8.64 53.3621 9.08C53.4621 9.51 53.5121 9.945 53.5121 10.385C53.5121 10.515 53.5021 10.69 53.4821 10.91C54.1821 10.51 54.9321 10.31 55.7321 10.31C57.1621 10.31 57.8771 11 57.8771 12.38C57.8771 13.04 57.7071 13.545 57.3671 13.895C57.0271 14.235 56.5221 14.405 55.8521 14.405C55.4621 14.405 55.1171 14.365 54.8171 14.285V13.205C55.1071 13.285 55.4221 13.325 55.7621 13.325C56.2021 13.325 56.5071 13.255 56.6771 13.115C56.8571 12.965 56.9471 12.715 56.9471 12.365C56.9471 12.005 56.8521 11.755 56.6621 11.615C56.4821 11.465 56.1621 11.39 55.7021 11.39C55.2521 11.39 54.8021 11.46 54.3521 11.6C53.9021 11.74 53.3921 11.975 52.8221 12.305C52.3621 12.705 51.6121 12.92 50.5721 12.95L53.6921 16.985V17H52.2971L49.1471 12.815V11.795H49.7471C50.6971 11.795 51.3821 11.685 51.8021 11.465C52.2221 11.245 52.4321 10.82 52.4321 10.19C52.4321 9.79 52.3571 9.385 52.2071 8.975C52.0571 8.565 51.8671 8.22 51.6371 7.94H48.4721V6.8H58.5221V7.94H53.0021Z" fill="#2E55B8"/>
<path d="M53.0021 7.94V6.94H51.4289L52.0966 8.36443L53.0021 7.94ZM53.3621 9.08L52.3824 9.2804L52.385 9.29349L52.3881 9.30651L53.3621 9.08ZM53.4821 10.91L52.4862 10.8195L52.3125 12.7301L53.9782 11.7782L53.4821 10.91ZM57.3671 13.895L58.0742 14.6021L58.0793 14.597L58.0843 14.5918L57.3671 13.895ZM54.8171 14.285H53.8171V15.0533L54.5594 15.2512L54.8171 14.285ZM54.8171 13.205L55.083 12.241L53.8171 11.8918V13.205H54.8171ZM56.6771 13.115L57.3128 13.8869L57.3173 13.8832L56.6771 13.115ZM56.6621 11.615L56.0219 12.3832L56.0448 12.4023L56.0689 12.4201L56.6621 11.615ZM54.3521 11.6L54.6491 12.5549L54.3521 11.6ZM52.8221 12.305L52.321 11.4396L52.2382 11.4876L52.1659 11.5504L52.8221 12.305ZM50.5721 12.95L50.5432 11.9504L48.5789 12.0071L49.781 13.5617L50.5721 12.95ZM53.6921 16.985H54.6921V16.6435L54.4832 16.3733L53.6921 16.985ZM53.6921 17V18H54.6921V17H53.6921ZM52.2971 17L51.4981 17.6014L51.7981 18H52.2971V17ZM49.1471 12.815H48.1471V13.1493L48.3481 13.4164L49.1471 12.815ZM49.1471 11.795V10.795H48.1471V11.795H49.1471ZM51.8021 11.465L52.2661 12.3508H52.2661L51.8021 11.465ZM52.2071 8.975L53.1462 8.63142L52.2071 8.975ZM51.6371 7.94L52.4098 7.30526L52.1098 6.94H51.6371V7.94ZM48.4721 7.94H47.4721V8.94H48.4721V7.94ZM48.4721 6.8V5.8H47.4721V6.8H48.4721ZM58.5221 6.8H59.5221V5.8H58.5221V6.8ZM58.5221 7.94V8.94H59.5221V7.94H58.5221ZM52.0966 8.36443C52.2055 8.59675 52.3041 8.89799 52.3824 9.2804L54.3418 8.8796C54.24 8.38201 54.0986 7.92325 53.9075 7.51557L52.0966 8.36443ZM52.3881 9.30651C52.4708 9.6625 52.5121 10.0215 52.5121 10.385H54.5121C54.5121 9.86849 54.4533 9.3575 54.3361 8.85349L52.3881 9.30651ZM52.5121 10.385C52.5121 10.4711 52.505 10.6119 52.4862 10.8195L54.478 11.0005C54.4991 10.7681 54.5121 10.5589 54.5121 10.385H52.5121ZM53.9782 11.7782C54.5283 11.4639 55.1075 11.31 55.7321 11.31V9.31C54.7566 9.31 53.8358 9.55612 52.9859 10.0418L53.9782 11.7782ZM55.7321 11.31C56.3017 11.31 56.5436 11.4479 56.6464 11.5471C56.7426 11.6399 56.8771 11.8534 56.8771 12.38H58.8771C58.8771 11.5266 58.6541 10.7051 58.0352 10.1079C57.423 9.51713 56.5925 9.31 55.7321 9.31V11.31ZM56.8771 12.38C56.8771 12.8737 56.7522 13.0928 56.6498 13.1982L58.0843 14.5918C58.662 13.9972 58.8771 13.2063 58.8771 12.38H56.8771ZM56.66 13.1879C56.5711 13.2767 56.3629 13.405 55.8521 13.405V15.405C56.6812 15.405 57.483 15.1933 58.0742 14.6021L56.66 13.1879ZM55.8521 13.405C55.5279 13.405 55.2725 13.3715 55.0747 13.3188L54.5594 15.2512C54.9617 15.3585 55.3962 15.405 55.8521 15.405V13.405ZM55.8171 14.285V13.205H53.8171V14.285H55.8171ZM54.5511 14.169C54.9382 14.2758 55.3437 14.325 55.7621 14.325V12.325C55.5005 12.325 55.276 12.2942 55.083 12.241L54.5511 14.169ZM55.7621 14.325C56.2382 14.325 56.8556 14.2634 57.3128 13.8869L56.0414 12.3431C56.1157 12.2819 56.1579 12.2839 56.0971 12.2978C56.0409 12.3107 55.9346 12.325 55.7621 12.325V14.325ZM57.3173 13.8832C57.8194 13.4648 57.9471 12.8624 57.9471 12.365H55.9471C55.9471 12.4102 55.9441 12.4413 55.9413 12.4604C55.9384 12.4795 55.9361 12.4835 55.9387 12.4763C55.9414 12.4686 55.9493 12.4495 55.9663 12.4243C55.9837 12.3985 56.0073 12.3714 56.0369 12.3468L57.3173 13.8832ZM57.9471 12.365C57.9471 11.8596 57.8138 11.2215 57.2553 10.8099L56.0689 12.4201C56.0325 12.3933 56.0024 12.3621 55.9794 12.3306C55.9569 12.2999 55.9457 12.275 55.941 12.2627C55.9333 12.2425 55.9471 12.267 55.9471 12.365H57.9471ZM57.3023 10.8468C56.8358 10.4581 56.2034 10.39 55.7021 10.39V12.39C55.8832 12.39 55.9967 12.4053 56.0589 12.4199C56.1247 12.4353 56.0896 12.4396 56.0219 12.3832L57.3023 10.8468ZM55.7021 10.39C55.1467 10.39 54.5966 10.4766 54.055 10.6451L54.6491 12.5549C55.0075 12.4434 55.3575 12.39 55.7021 12.39V10.39ZM54.055 10.6451C53.5121 10.8141 52.9321 11.0858 52.321 11.4396L53.3231 13.1704C53.852 12.8642 54.2921 12.6659 54.6491 12.5549L54.055 10.6451ZM52.1659 11.5504C51.9668 11.7235 51.5008 11.9228 50.5432 11.9504L50.6009 13.9496C51.7233 13.9172 52.7573 13.6865 53.4782 13.0596L52.1659 11.5504ZM49.781 13.5617L52.901 17.5967L54.4832 16.3733L51.3632 12.3383L49.781 13.5617ZM52.6921 16.985V17H54.6921V16.985H52.6921ZM53.6921 16H52.2971V18H53.6921V16ZM53.096 16.3986L49.946 12.2136L48.3481 13.4164L51.4981 17.6014L53.096 16.3986ZM50.1471 12.815V11.795H48.1471V12.815H50.1471ZM49.1471 12.795H49.7471V10.795H49.1471V12.795ZM49.7471 12.795C50.7274 12.795 51.6199 12.6893 52.2661 12.3508L51.3381 10.5792C51.1443 10.6807 50.6667 10.795 49.7471 10.795V12.795ZM52.2661 12.3508C53.1248 11.901 53.4321 11.05 53.4321 10.19H51.4321C51.4321 10.3997 51.3964 10.5011 51.378 10.5383C51.3697 10.5552 51.3639 10.5612 51.3623 10.5628C51.3607 10.5644 51.3548 10.5704 51.3381 10.5792L52.2661 12.3508ZM53.4321 10.19C53.4321 9.66253 53.3328 9.14143 53.1462 8.63142L51.2679 9.31858C51.3814 9.62857 51.4321 9.91747 51.4321 10.19H53.4321ZM53.1462 8.63142C52.9652 8.13669 52.7242 7.688 52.4098 7.30526L50.8643 8.57474C51.01 8.752 51.1489 8.99331 51.2679 9.31858L53.1462 8.63142ZM51.6371 6.94H48.4721V8.94H51.6371V6.94ZM49.4721 7.94V6.8H47.4721V7.94H49.4721ZM48.4721 7.8H58.5221V5.8H48.4721V7.8ZM57.5221 6.8V7.94H59.5221V6.8H57.5221ZM58.5221 6.94H53.0021V8.94H58.5221V6.94Z" fill="#2E55B8" mask="url(#path-9-outside-5_77_1232)"/>
</g>
<g id="outside_6">
<mask id="path-11-outside-6_77_1232" maskUnits="userSpaceOnUse" x="75.2461" y="15.1158" width="19.0809" height="18.9576" fill="black">
<rect fill="white" x="75.2461" y="15.1158" width="19.0809" height="18.9576"/>
<path d="M86.6934 21.5474C86.6026 21.889 86.4503 22.2572 86.2364 22.6521C86.0366 23.0458 85.7953 23.4112 85.5125 23.7482C85.4289 23.8478 85.3088 23.9754 85.152 24.1311C85.9454 24.2746 86.6485 24.6035 87.2613 25.1178C88.3567 26.0369 88.4609 27.0251 87.5739 28.0822C87.1497 28.5878 86.6948 28.8654 86.2094 28.915C85.7304 28.9569 85.2343 28.7625 84.721 28.3318C84.4223 28.0812 84.1837 27.8287 84.0053 27.5746L84.6995 26.7473C84.8702 26.995 85.0858 27.2281 85.3463 27.4467C85.6833 27.7295 85.962 27.8719 86.1822 27.8739C86.4165 27.8747 86.6461 27.7411 86.8711 27.473C87.1025 27.1972 87.1904 26.9446 87.1349 26.7152C87.0934 26.4846 86.8965 26.2215 86.5441 25.9258C86.1994 25.6365 85.8097 25.4009 85.375 25.2189C84.9403 25.0369 84.3985 24.8891 83.7498 24.7755C83.1403 24.7862 82.4275 24.4688 81.6116 23.8233L81.408 28.9198L81.3983 28.9313L80.3297 28.0346L80.6067 22.8039L81.2624 22.0226L81.722 22.4082C82.4497 23.0189 83.0452 23.3749 83.5083 23.4764C83.9715 23.5778 84.4055 23.3872 84.8105 22.9046C85.0676 22.5982 85.2705 22.2398 85.4191 21.8293C85.5678 21.4188 85.644 21.0323 85.6478 20.67L83.2232 18.6356L83.956 17.7623L91.6548 24.2223L90.922 25.0956L86.6934 21.5474Z"/>
</mask>
<path d="M86.6934 21.5474C86.6026 21.889 86.4503 22.2572 86.2364 22.6521C86.0366 23.0458 85.7953 23.4112 85.5125 23.7482C85.4289 23.8478 85.3088 23.9754 85.152 24.1311C85.9454 24.2746 86.6485 24.6035 87.2613 25.1178C88.3567 26.0369 88.4609 27.0251 87.5739 28.0822C87.1497 28.5878 86.6948 28.8654 86.2094 28.915C85.7304 28.9569 85.2343 28.7625 84.721 28.3318C84.4223 28.0812 84.1837 27.8287 84.0053 27.5746L84.6995 26.7473C84.8702 26.995 85.0858 27.2281 85.3463 27.4467C85.6833 27.7295 85.962 27.8719 86.1822 27.8739C86.4165 27.8747 86.6461 27.7411 86.8711 27.473C87.1025 27.1972 87.1904 26.9446 87.1349 26.7152C87.0934 26.4846 86.8965 26.2215 86.5441 25.9258C86.1994 25.6365 85.8097 25.4009 85.375 25.2189C84.9403 25.0369 84.3985 24.8891 83.7498 24.7755C83.1403 24.7862 82.4275 24.4688 81.6116 23.8233L81.408 28.9198L81.3983 28.9313L80.3297 28.0346L80.6067 22.8039L81.2624 22.0226L81.722 22.4082C82.4497 23.0189 83.0452 23.3749 83.5083 23.4764C83.9715 23.5778 84.4055 23.3872 84.8105 22.9046C85.0676 22.5982 85.2705 22.2398 85.4191 21.8293C85.5678 21.4188 85.644 21.0323 85.6478 20.67L83.2232 18.6356L83.956 17.7623L91.6548 24.2223L90.922 25.0956L86.6934 21.5474Z" fill="#2E55B8"/>
<path d="M86.6934 21.5474L87.3362 20.7814L86.1311 19.7702L85.727 21.2905L86.6934 21.5474ZM86.2364 22.6521L85.3571 22.1759L85.3507 22.1876L85.3447 22.1996L86.2364 22.6521ZM85.152 24.1311L84.4473 23.4216L83.0861 24.7736L84.974 25.1151L85.152 24.1311ZM86.2094 28.915L86.2966 29.9112L86.3038 29.9105L86.311 29.9098L86.2094 28.915ZM84.0053 27.5746L83.2392 26.9318L82.7454 27.5204L83.1868 28.1492L84.0053 27.5746ZM84.6995 26.7473L85.5229 26.1798L84.7776 25.0985L83.9335 26.1045L84.6995 26.7473ZM86.1822 27.8739L86.173 28.8739L86.1788 28.8739L86.1822 27.8739ZM87.1349 26.7152L86.1507 26.8922L86.156 26.9216L86.163 26.9506L87.1349 26.7152ZM85.375 25.2189L84.9888 26.1413L85.375 25.2189ZM83.7498 24.7755L83.9222 23.7905L83.8279 23.774L83.7321 23.7757L83.7498 24.7755ZM81.6116 23.8233L82.232 23.0391L80.6908 21.8198L80.6124 23.7834L81.6116 23.8233ZM81.408 28.9198L82.174 29.5626L82.3935 29.301L82.4072 28.9597L81.408 28.9198ZM81.3983 28.9313L80.7555 29.6973L81.5216 30.3401L82.1644 29.5741L81.3983 28.9313ZM80.3297 28.0346L79.3311 27.9817L79.3047 28.48L79.6869 28.8007L80.3297 28.0346ZM80.6067 22.8039L79.8407 22.1612L79.6258 22.4172L79.6081 22.7511L80.6067 22.8039ZM81.2624 22.0226L81.9052 21.2565L81.1391 20.6137L80.4963 21.3798L81.2624 22.0226ZM83.5083 23.4764L83.2944 24.4532L83.2944 24.4532L83.5083 23.4764ZM85.4191 21.8293L86.3594 22.1697L85.4191 21.8293ZM85.6478 20.67L86.6477 20.6805L86.6526 20.2078L86.2905 19.904L85.6478 20.67ZM83.2232 18.6356L82.4572 17.9928L81.8144 18.7588L82.5804 19.4016L83.2232 18.6356ZM83.956 17.7623L84.5988 16.9963L83.8327 16.3535L83.19 17.1195L83.956 17.7623ZM91.6548 24.2223L92.4208 24.8651L93.0636 24.0991L92.2975 23.4563L91.6548 24.2223ZM90.922 25.0956L90.2792 25.8616L91.0452 26.5044L91.688 25.7384L90.922 25.0956ZM85.727 21.2905C85.6611 21.5385 85.543 21.8327 85.3571 22.1759L87.1157 23.1283C87.3576 22.6817 87.5442 22.2394 87.6599 21.8043L85.727 21.2905ZM85.3447 22.1996C85.1793 22.5255 84.9801 22.827 84.7464 23.1054L86.2785 24.391C86.6105 23.9953 86.894 23.5661 87.1281 23.1047L85.3447 22.1996ZM84.7464 23.1054C84.6911 23.1714 84.5952 23.2747 84.4473 23.4216L85.8567 24.8406C86.0223 24.6761 86.1668 24.5242 86.2785 24.391L84.7464 23.1054ZM84.974 25.1151C85.5975 25.2279 86.1401 25.4823 86.6185 25.8838L87.9041 24.3517C87.1569 23.7247 86.2933 23.3213 85.3301 23.1471L84.974 25.1151ZM86.6185 25.8838C87.0548 26.2499 87.1516 26.5111 87.1666 26.6531C87.1806 26.7861 87.1464 27.036 86.8079 27.4395L88.3399 28.725C88.8885 28.0713 89.2457 27.2986 89.1555 26.4434C89.0663 25.5973 88.5632 24.9048 87.9041 24.3517L86.6185 25.8838ZM86.8079 27.4395C86.4905 27.8176 86.254 27.9052 86.1078 27.9202L86.311 29.9098C87.1356 29.8256 87.8088 29.358 88.3399 28.725L86.8079 27.4395ZM86.1222 27.9188C85.9971 27.9297 85.7551 27.8942 85.3638 27.5658L84.0782 29.0979C84.7134 29.6308 85.4637 29.984 86.2966 29.9112L86.1222 27.9188ZM85.3638 27.5658C85.1155 27.3574 84.9413 27.1676 84.8238 27.0001L83.1868 28.1492C83.426 28.4899 83.729 28.8049 84.0782 29.0979L85.3638 27.5658ZM84.7713 28.2174L85.4655 27.3901L83.9335 26.1045L83.2392 26.9318L84.7713 28.2174ZM83.8761 27.3148C84.104 27.6454 84.383 27.9438 84.7035 28.2127L85.9891 26.6806C85.7887 26.5125 85.6365 26.3446 85.5229 26.1798L83.8761 27.3148ZM84.7035 28.2127C85.0682 28.5187 85.5807 28.8684 86.173 28.8739L86.1914 26.874C86.2877 26.8749 86.3187 26.9036 86.2632 26.8752C86.2118 26.8489 86.1212 26.7915 85.9891 26.6806L84.7035 28.2127ZM86.1788 28.8739C86.8324 28.8762 87.3174 28.4968 87.6372 28.1157L86.1051 26.8302C86.076 26.8648 86.0538 26.8867 86.0393 26.8995C86.0249 26.9123 86.0205 26.9139 86.0271 26.91C86.0342 26.9059 86.0525 26.8963 86.0817 26.888C86.1116 26.8794 86.1471 26.8738 86.1856 26.8739L86.1788 28.8739ZM87.6372 28.1157C87.962 27.7286 88.2701 27.1541 88.1068 26.4798L86.163 26.9506C86.1524 26.9068 86.1493 26.8635 86.1519 26.8246C86.1545 26.7866 86.1619 26.7603 86.1662 26.7479C86.1733 26.7275 86.1681 26.7551 86.1051 26.8302L87.6372 28.1157ZM88.1191 26.5382C88.0116 25.9407 87.571 25.482 87.1869 25.1598L85.9013 26.6918C86.0401 26.8083 86.1172 26.893 86.1555 26.9441C86.196 26.9982 86.1663 26.9789 86.1507 26.8922L88.1191 26.5382ZM87.1869 25.1598C86.7614 24.8027 86.2844 24.5156 85.7612 24.2965L84.9888 26.1413C85.335 26.2863 85.6374 26.4703 85.9013 26.6918L87.1869 25.1598ZM85.7612 24.2965C85.2367 24.0769 84.6178 23.9123 83.9222 23.7905L83.5773 25.7605C84.1793 25.8659 84.6438 25.9969 84.9888 26.1413L85.7612 24.2965ZM83.7321 23.7757C83.4683 23.7803 82.9833 23.6334 82.232 23.0391L80.9911 24.6076C81.8717 25.3043 82.8122 25.7922 83.7674 25.7753L83.7321 23.7757ZM80.6124 23.7834L80.4088 28.8799L82.4072 28.9597L82.6108 23.8632L80.6124 23.7834ZM80.6419 28.277L80.6323 28.2885L82.1644 29.5741L82.174 29.5626L80.6419 28.277ZM82.0411 28.1653L80.9725 27.2686L79.6869 28.8007L80.7555 29.6973L82.0411 28.1653ZM81.3283 28.0875L81.6053 22.8568L79.6081 22.7511L79.3311 27.9817L81.3283 28.0875ZM81.3728 23.4467L82.0284 22.6654L80.4963 21.3798L79.8407 22.1612L81.3728 23.4467ZM80.6196 22.7886L81.0792 23.1743L82.3648 21.6422L81.9052 21.2565L80.6196 22.7886ZM81.0792 23.1743C81.8302 23.8044 82.5818 24.2971 83.2944 24.4532L83.7223 22.4995C83.5086 22.4527 83.0693 22.2333 82.3648 21.6422L81.0792 23.1743ZM83.2944 24.4532C84.2413 24.6606 85.0237 24.2062 85.5765 23.5474L84.0444 22.2618C83.9097 22.4225 83.8171 22.4772 83.7792 22.4939C83.7619 22.5015 83.7536 22.5024 83.7514 22.5026C83.7491 22.5028 83.7407 22.5036 83.7223 22.4995L83.2944 24.4532ZM85.5765 23.5474C85.9156 23.1434 86.1745 22.6803 86.3594 22.1697L84.4789 21.4888C84.3665 21.7992 84.2196 22.0531 84.0444 22.2618L85.5765 23.5474ZM86.3594 22.1697C86.5387 21.6744 86.6425 21.1758 86.6477 20.6805L84.6478 20.6596C84.6454 20.8889 84.5968 21.1631 84.4789 21.4888L86.3594 22.1697ZM86.2905 19.904L83.866 17.8695L82.5804 19.4016L85.005 21.4361L86.2905 19.904ZM83.9893 19.2784L84.7221 18.4051L83.19 17.1195L82.4572 17.9928L83.9893 19.2784ZM83.3132 18.5283L91.012 24.9884L92.2975 23.4563L84.5988 16.9963L83.3132 18.5283ZM90.8887 23.5795L90.1559 24.4528L91.688 25.7384L92.4208 24.8651L90.8887 23.5795ZM91.5648 24.3296L87.3362 20.7814L86.0506 22.3135L90.2792 25.8616L91.5648 24.3296Z" fill="#2E55B8" mask="url(#path-11-outside-6_77_1232)"/>
</g>
<g id="outside_7">
<mask id="path-13-outside-7_77_1232" maskUnits="userSpaceOnUse" x="12.4802" y="73.0037" width="18.9576" height="19.0809" fill="black">
<rect fill="white" x="12.4802" y="73.0037" width="18.9576" height="19.0809"/>
<path d="M19.5519 85.2139C19.7007 84.8933 19.9146 84.5571 20.1938 84.2053C20.4589 83.8523 20.76 83.5344 21.0971 83.2516C21.1967 83.168 21.3372 83.0632 21.5186 82.9371C20.7622 82.658 20.1269 82.212 19.6127 81.5992C18.6935 80.5037 18.7624 79.5125 19.8196 78.6254C20.3252 78.2012 20.8213 78.0068 21.308 78.0423C21.787 78.0842 22.2418 78.3618 22.6725 78.875C22.9232 79.1738 23.1143 79.4638 23.2458 79.745L22.4185 80.4392C22.2934 80.1656 22.1215 79.8986 21.903 79.6382C21.6202 79.3011 21.3705 79.1125 21.154 79.0722C20.9234 79.0308 20.674 79.1225 20.4059 79.3475C20.1301 79.5789 19.9997 79.8124 20.0145 80.0479C20.0153 80.2822 20.1636 80.5756 20.4593 80.9279C20.7485 81.2727 21.0914 81.5724 21.4879 81.8271C21.8844 82.0818 22.3922 82.3215 23.0114 82.546C23.6135 82.6413 24.2603 83.0776 24.9518 83.855L26.0373 78.8713L26.0488 78.8616L26.9455 79.9303L25.7644 85.0334L24.983 85.689L24.5973 85.2294C23.9867 84.5017 23.4621 84.0476 23.0236 83.8673C22.5851 83.687 22.1245 83.7993 21.6419 84.2042C21.3355 84.4614 21.0735 84.7791 20.8558 85.1576C20.6381 85.536 20.496 85.9033 20.4293 86.2595L22.4638 88.6841L21.5905 89.4168L15.1305 81.7181L16.0037 80.9853L19.5519 85.2139Z"/>
</mask>
<path d="M19.5519 85.2139C19.7007 84.8933 19.9146 84.5571 20.1938 84.2053C20.4589 83.8523 20.76 83.5344 21.0971 83.2516C21.1967 83.168 21.3372 83.0632 21.5186 82.9371C20.7622 82.658 20.1269 82.212 19.6127 81.5992C18.6935 80.5037 18.7624 79.5125 19.8196 78.6254C20.3252 78.2012 20.8213 78.0068 21.308 78.0423C21.787 78.0842 22.2418 78.3618 22.6725 78.875C22.9232 79.1738 23.1143 79.4638 23.2458 79.745L22.4185 80.4392C22.2934 80.1656 22.1215 79.8986 21.903 79.6382C21.6202 79.3011 21.3705 79.1125 21.154 79.0722C20.9234 79.0308 20.674 79.1225 20.4059 79.3475C20.1301 79.5789 19.9997 79.8124 20.0145 80.0479C20.0153 80.2822 20.1636 80.5756 20.4593 80.9279C20.7485 81.2727 21.0914 81.5724 21.4879 81.8271C21.8844 82.0818 22.3922 82.3215 23.0114 82.546C23.6135 82.6413 24.2603 83.0776 24.9518 83.855L26.0373 78.8713L26.0488 78.8616L26.9455 79.9303L25.7644 85.0334L24.983 85.689L24.5973 85.2294C23.9867 84.5017 23.4621 84.0476 23.0236 83.8673C22.5851 83.687 22.1245 83.7993 21.6419 84.2042C21.3355 84.4614 21.0735 84.7791 20.8558 85.1576C20.6381 85.536 20.496 85.9033 20.4293 86.2595L22.4638 88.6841L21.5905 89.4168L15.1305 81.7181L16.0037 80.9853L19.5519 85.2139Z" fill="#2E55B8"/>
<path d="M19.5519 85.2139L18.7859 85.8567L19.7971 87.0618L20.4591 85.6347L19.5519 85.2139ZM20.1938 84.2053L20.9771 84.827L20.9854 84.8165L20.9934 84.8058L20.1938 84.2053ZM21.5186 82.9371L22.0893 83.7582L23.6646 82.6631L21.8648 81.9989L21.5186 82.9371ZM21.308 78.0423L21.3951 77.0461L21.3879 77.0455L21.3807 77.0449L21.308 78.0423ZM23.2458 79.745L23.8886 80.5111L24.4772 80.0172L24.1516 79.3213L23.2458 79.745ZM22.4185 80.4392L21.5091 80.8552L22.0553 82.0494L23.0613 81.2053L22.4185 80.4392ZM21.154 79.0722L21.3367 78.089L21.331 78.088L21.154 79.0722ZM20.0145 80.0479L21.0145 80.0445L21.0144 80.0146L21.0126 79.9848L20.0145 80.0479ZM21.4879 81.8271L22.0284 80.9858L21.4879 81.8271ZM23.0114 82.546L22.6705 83.4861L22.7606 83.5187L22.8551 83.5337L23.0114 82.546ZM24.9518 83.855L24.2046 84.5196L25.5107 85.988L25.9289 84.0678L24.9518 83.855ZM26.0373 78.8713L25.3945 78.1052L25.1329 78.3248L25.0602 78.6585L26.0373 78.8713ZM26.0488 78.8616L26.8148 78.2189L26.172 77.4528L25.406 78.0956L26.0488 78.8616ZM26.9455 79.9303L27.9197 80.1558L28.0322 79.6697L27.7115 79.2875L26.9455 79.9303ZM25.7644 85.0334L26.4071 85.7994L26.6632 85.5845L26.7386 85.2589L25.7644 85.0334ZM24.983 85.689L24.2169 86.3318L24.8597 87.0979L25.6258 86.4551L24.983 85.689ZM23.0236 83.8673L23.4039 82.9424L23.4039 82.9424L23.0236 83.8673ZM20.8558 85.1576L19.989 84.659L20.8558 85.1576ZM20.4293 86.2595L19.4464 86.0756L19.3595 86.5402L19.6633 86.9023L20.4293 86.2595ZM22.4638 88.6841L23.1066 89.4501L23.8726 88.8073L23.2298 88.0413L22.4638 88.6841ZM21.5905 89.4168L20.8244 90.0596L21.4672 90.8257L22.2333 90.1829L21.5905 89.4168ZM15.1305 81.7181L14.4877 80.952L13.7216 81.5948L14.3644 82.3609L15.1305 81.7181ZM16.0037 80.9853L16.7698 80.3425L16.127 79.5765L15.361 80.2193L16.0037 80.9853ZM20.4591 85.6347C20.5671 85.4019 20.7344 85.1327 20.9771 84.827L19.4106 83.5836C19.0948 83.9814 18.8343 84.3846 18.6448 84.7931L20.4591 85.6347ZM20.9934 84.8058C21.2129 84.5136 21.4614 84.2513 21.7399 84.0176L20.4543 82.4855C20.0586 82.8175 19.705 83.191 19.3942 83.6048L20.9934 84.8058ZM21.7399 84.0176C21.8059 83.9623 21.9182 83.8771 22.0893 83.7582L20.9478 82.116C20.7561 82.2492 20.5875 82.3738 20.4543 82.4855L21.7399 84.0176ZM21.8648 81.9989C21.2703 81.7796 20.7802 81.4348 20.3787 80.9564L18.8466 82.2419C19.4736 82.9892 20.2541 83.5364 21.1724 83.8752L21.8648 81.9989ZM20.3787 80.9564C20.0126 80.52 19.9627 80.2461 19.9726 80.1036C19.9819 79.9702 20.059 79.73 20.4624 79.3915L19.1768 77.8594C18.5231 78.4079 18.0371 79.1068 17.9774 79.9647C17.9183 80.8134 18.2935 81.5828 18.8466 82.2419L20.3787 80.9564ZM20.4624 79.3915C20.8406 79.0741 21.0887 79.029 21.2353 79.0396L21.3807 77.0449C20.5539 76.9847 19.8098 77.3282 19.1768 77.8594L20.4624 79.3915ZM21.2208 79.0385C21.346 79.0494 21.578 79.1265 21.9064 79.5178L23.4385 78.2322C22.9056 77.5971 22.228 77.119 21.3951 77.0461L21.2208 79.0385ZM21.9064 79.5178C22.1148 79.7661 22.2533 79.9834 22.34 80.1687L24.1516 79.3213C23.9752 78.9442 23.7315 78.5814 23.4385 78.2322L21.9064 79.5178ZM22.603 78.979L21.7757 79.6732L23.0613 81.2053L23.8886 80.5111L22.603 78.979ZM23.3279 80.0233C23.1609 79.6582 22.938 79.3159 22.669 78.9954L21.1369 80.281C21.3051 80.4814 21.4258 80.6731 21.5091 80.8552L23.3279 80.0233ZM22.669 78.9954C22.363 78.6307 21.919 78.1973 21.3367 78.0891L20.9713 80.0554C20.8766 80.0378 20.851 80.0042 20.9008 80.0418C20.9468 80.0765 21.026 80.1488 21.1369 80.281L22.669 78.9954ZM21.331 78.088C20.6877 77.9723 20.1441 78.2617 19.7631 78.5814L21.0487 80.1135C21.0833 80.0845 21.109 80.0667 21.1255 80.0567C21.1419 80.0466 21.1465 80.0458 21.1393 80.0484C21.1317 80.0512 21.1119 80.0575 21.0817 80.0607C21.0508 80.0639 21.0149 80.0633 20.977 80.0564L21.331 78.088ZM19.7631 78.5814C19.376 78.9063 18.9728 79.4186 19.0165 80.111L21.0126 79.9848C21.0154 80.0299 21.0109 80.073 21.0016 80.1109C20.9925 80.1478 20.9806 80.1725 20.9742 80.1839C20.9636 80.2028 20.9736 80.1765 21.0487 80.1135L19.7631 78.5814ZM19.0146 80.0513C19.0166 80.6584 19.371 81.1867 19.6932 81.5707L21.2253 80.2851C21.1089 80.1464 21.0476 80.0496 21.0188 79.9926C20.9883 79.9323 21.0142 79.9564 21.0145 80.0445L19.0146 80.0513ZM19.6932 81.5707C20.0502 81.9962 20.4702 82.3619 20.9474 82.6684L22.0284 80.9858C21.7126 80.7829 21.4468 80.5491 21.2253 80.2851L19.6932 81.5707ZM20.9474 82.6684C21.4258 82.9758 22.0067 83.2454 22.6705 83.4861L23.3523 81.6059C22.7778 81.3975 22.343 81.1879 22.0284 80.9858L20.9474 82.6684ZM22.8551 83.5337C23.1157 83.5749 23.5679 83.8038 24.2046 84.5196L25.699 83.1904C24.9527 82.3514 24.1113 81.7076 23.1677 81.5583L22.8551 83.5337ZM25.9289 84.0678L27.0144 79.0841L25.0602 78.6585L23.9747 83.6422L25.9289 84.0678ZM26.6801 79.6373L26.6916 79.6277L25.406 78.0956L25.3945 78.1052L26.6801 79.6373ZM25.2827 79.5044L26.1794 80.5731L27.7115 79.2875L26.8148 78.2189L25.2827 79.5044ZM25.9712 79.7048L24.7901 84.8079L26.7386 85.2589L27.9197 80.1558L25.9712 79.7048ZM25.1216 84.2673L24.3402 84.923L25.6258 86.4551L26.4071 85.7994L25.1216 84.2673ZM25.749 85.0462L25.3634 84.5866L23.8313 85.8722L24.2169 86.3318L25.749 85.0462ZM25.3634 84.5866C24.7332 83.8356 24.0786 83.2199 23.4039 82.9424L22.6433 84.7921C22.8456 84.8753 23.2401 85.1677 23.8313 85.8722L25.3634 84.5866ZM23.4039 82.9424C22.5074 82.5738 21.6579 82.8854 20.9991 83.4382L22.2847 84.9703C22.4453 84.8355 22.546 84.7976 22.5862 84.7878C22.6045 84.7834 22.6129 84.7839 22.6151 84.7841C22.6174 84.7842 22.6258 84.785 22.6433 84.7921L23.4039 82.9424ZM20.9991 83.4382C20.5951 83.7772 20.2597 84.1883 19.989 84.659L21.7227 85.6561C21.8872 85.37 22.0759 85.1455 22.2847 84.9703L20.9991 83.4382ZM19.989 84.659C19.7263 85.1157 19.5375 85.5887 19.4464 86.0756L21.4123 86.4435C21.4545 86.218 21.55 85.9564 21.7227 85.6561L19.989 84.659ZM19.6633 86.9023L21.6977 89.3268L23.2298 88.0413L21.1954 85.6167L19.6633 86.9023ZM21.821 87.918L20.9477 88.6508L22.2333 90.1829L23.1066 89.4501L21.821 87.918ZM22.3565 88.774L15.8965 81.0753L14.3644 82.3609L20.8244 90.0596L22.3565 88.774ZM15.7732 82.4841L16.6465 81.7513L15.361 80.2193L14.4877 80.952L15.7732 82.4841ZM15.2377 81.6281L18.7859 85.8567L20.318 84.5711L16.7698 80.3425L15.2377 81.6281Z" fill="#2E55B8" mask="url(#path-13-outside-7_77_1232)"/>
</g>
<g id="outside_8">
<mask id="path-15-outside-8_77_1232" maskUnits="userSpaceOnUse" x="44.5" y="91" width="14" height="13" fill="black">
<rect fill="white" x="44.5" y="91" width="14" height="13"/>
<path d="M51.9979 101.06C51.8479 100.74 51.7279 100.36 51.6379 99.92C51.5379 99.49 51.4879 99.055 51.4879 98.615C51.4879 98.485 51.4979 98.31 51.5179 98.09C50.8179 98.49 50.0679 98.69 49.2679 98.69C47.8379 98.69 47.1229 98 47.1229 96.62C47.1229 95.96 47.2929 95.455 47.6329 95.105C47.9729 94.765 48.4779 94.595 49.1479 94.595C49.5379 94.595 49.8829 94.635 50.1829 94.715V95.795C49.8929 95.715 49.5779 95.675 49.2379 95.675C48.7979 95.675 48.4929 95.745 48.3229 95.885C48.1429 96.035 48.0529 96.285 48.0529 96.635C48.0529 96.995 48.1479 97.245 48.3379 97.385C48.5179 97.535 48.8379 97.61 49.2979 97.61C49.7479 97.61 50.1979 97.54 50.6479 97.4C51.0979 97.26 51.6079 97.025 52.1779 96.695C52.6379 96.295 53.3879 96.08 54.4279 96.05L51.3079 92.015V92H52.7029L55.8529 96.185V97.205H55.2529C54.3029 97.205 53.6179 97.315 53.1979 97.535C52.7779 97.755 52.5679 98.18 52.5679 98.81C52.5679 99.21 52.6429 99.615 52.7929 100.025C52.9429 100.435 53.1329 100.78 53.3629 101.06H56.5279V102.2H46.4779V101.06H51.9979Z"/>
</mask>
<path d="M51.9979 101.06C51.8479 100.74 51.7279 100.36 51.6379 99.92C51.5379 99.49 51.4879 99.055 51.4879 98.615C51.4879 98.485 51.4979 98.31 51.5179 98.09C50.8179 98.49 50.0679 98.69 49.2679 98.69C47.8379 98.69 47.1229 98 47.1229 96.62C47.1229 95.96 47.2929 95.455 47.6329 95.105C47.9729 94.765 48.4779 94.595 49.1479 94.595C49.5379 94.595 49.8829 94.635 50.1829 94.715V95.795C49.8929 95.715 49.5779 95.675 49.2379 95.675C48.7979 95.675 48.4929 95.745 48.3229 95.885C48.1429 96.035 48.0529 96.285 48.0529 96.635C48.0529 96.995 48.1479 97.245 48.3379 97.385C48.5179 97.535 48.8379 97.61 49.2979 97.61C49.7479 97.61 50.1979 97.54 50.6479 97.4C51.0979 97.26 51.6079 97.025 52.1779 96.695C52.6379 96.295 53.3879 96.08 54.4279 96.05L51.3079 92.015V92H52.7029L55.8529 96.185V97.205H55.2529C54.3029 97.205 53.6179 97.315 53.1979 97.535C52.7779 97.755 52.5679 98.18 52.5679 98.81C52.5679 99.21 52.6429 99.615 52.7929 100.025C52.9429 100.435 53.1329 100.78 53.3629 101.06H56.5279V102.2H46.4779V101.06H51.9979Z" fill="#2E55B8"/>
<path d="M51.9979 101.06V102.06H53.5711L52.9034 100.636L51.9979 101.06ZM51.6379 99.92L52.6176 99.7196L52.615 99.7065L52.6119 99.6935L51.6379 99.92ZM51.5179 98.09L52.5138 98.1805L52.6875 96.2699L51.0218 97.2218L51.5179 98.09ZM47.6329 95.105L46.9258 94.3979L46.9207 94.403L46.9157 94.4082L47.6329 95.105ZM50.1829 94.715H51.1829V93.9467L50.4406 93.7488L50.1829 94.715ZM50.1829 95.795L49.917 96.759L51.1829 97.1082V95.795H50.1829ZM48.3229 95.885L47.6872 95.1131L47.6827 95.1168L48.3229 95.885ZM48.3379 97.385L48.9781 96.6168L48.9552 96.5977L48.9311 96.5799L48.3379 97.385ZM50.6479 97.4L50.3509 96.4451L50.6479 97.4ZM52.1779 96.695L52.679 97.5604L52.7618 97.5124L52.8341 97.4496L52.1779 96.695ZM54.4279 96.05L54.4568 97.0496L56.4211 96.9929L55.219 95.4383L54.4279 96.05ZM51.3079 92.015H50.3079V92.3565L50.5168 92.6267L51.3079 92.015ZM51.3079 92V91H50.3079V92H51.3079ZM52.7029 92L53.5019 91.3986L53.2019 91H52.7029V92ZM55.8529 96.185H56.8529V95.8507L56.6519 95.5836L55.8529 96.185ZM55.8529 97.205V98.205H56.8529V97.205H55.8529ZM53.1979 97.535L52.7339 96.6492H52.7339L53.1979 97.535ZM52.7929 100.025L51.8538 100.369L52.7929 100.025ZM53.3629 101.06L52.5902 101.695L52.8902 102.06H53.3629V101.06ZM56.5279 101.06H57.5279V100.06H56.5279V101.06ZM56.5279 102.2V103.2H57.5279V102.2H56.5279ZM46.4779 102.2H45.4779V103.2H46.4779V102.2ZM46.4779 101.06V100.06H45.4779V101.06H46.4779ZM52.9034 100.636C52.7945 100.403 52.6959 100.102 52.6176 99.7196L50.6582 100.12C50.76 100.618 50.9014 101.077 51.0925 101.484L52.9034 100.636ZM52.6119 99.6935C52.5292 99.3375 52.4879 98.9785 52.4879 98.615H50.4879C50.4879 99.1315 50.5467 99.6425 50.6639 100.147L52.6119 99.6935ZM52.4879 98.615C52.4879 98.5289 52.495 98.3881 52.5138 98.1805L50.522 97.9995C50.5009 98.2319 50.4879 98.4411 50.4879 98.615H52.4879ZM51.0218 97.2218C50.4717 97.5361 49.8925 97.69 49.2679 97.69V99.69C50.2434 99.69 51.1642 99.4439 52.0141 98.9582L51.0218 97.2218ZM49.2679 97.69C48.6983 97.69 48.4564 97.5521 48.3536 97.4529C48.2574 97.3601 48.1229 97.1466 48.1229 96.62H46.1229C46.1229 97.4734 46.3459 98.2949 46.9648 98.8921C47.577 99.4829 48.4075 99.69 49.2679 99.69V97.69ZM48.1229 96.62C48.1229 96.1263 48.2478 95.9072 48.3502 95.8018L46.9157 94.4082C46.338 95.0028 46.1229 95.7937 46.1229 96.62H48.1229ZM48.34 95.8121C48.4289 95.7233 48.6371 95.595 49.1479 95.595V93.595C48.3188 93.595 47.517 93.8067 46.9258 94.3979L48.34 95.8121ZM49.1479 95.595C49.4721 95.595 49.7275 95.6285 49.9253 95.6812L50.4406 93.7488C50.0383 93.6415 49.6038 93.595 49.1479 93.595V95.595ZM49.1829 94.715V95.795H51.1829V94.715H49.1829ZM50.4489 94.831C50.0618 94.7242 49.6563 94.675 49.2379 94.675V96.675C49.4995 96.675 49.724 96.7058 49.917 96.759L50.4489 94.831ZM49.2379 94.675C48.7618 94.675 48.1444 94.7366 47.6872 95.1131L48.9586 96.6569C48.8843 96.7181 48.8421 96.7161 48.9029 96.7022C48.9591 96.6893 49.0654 96.675 49.2379 96.675V94.675ZM47.6827 95.1168C47.1806 95.5352 47.0529 96.1376 47.0529 96.635H49.0529C49.0529 96.5898 49.0559 96.5587 49.0587 96.5396C49.0616 96.5205 49.0639 96.5165 49.0613 96.5237C49.0586 96.5314 49.0507 96.5505 49.0337 96.5757C49.0163 96.6015 48.9927 96.6286 48.9631 96.6532L47.6827 95.1168ZM47.0529 96.635C47.0529 97.1404 47.1862 97.7785 47.7447 98.1901L48.9311 96.5799C48.9675 96.6067 48.9976 96.6379 49.0206 96.6694C49.0431 96.7001 49.0543 96.725 49.059 96.7373C49.0667 96.7575 49.0529 96.733 49.0529 96.635H47.0529ZM47.6977 98.1532C48.1642 98.5419 48.7966 98.61 49.2979 98.61V96.61C49.1168 96.61 49.0033 96.5947 48.9411 96.5801C48.8753 96.5647 48.9104 96.5604 48.9781 96.6168L47.6977 98.1532ZM49.2979 98.61C49.8533 98.61 50.4034 98.5234 50.945 98.3549L50.3509 96.4451C49.9925 96.5566 49.6425 96.61 49.2979 96.61V98.61ZM50.945 98.3549C51.4879 98.1859 52.0679 97.9142 52.679 97.5604L51.6769 95.8296C51.148 96.1358 50.7079 96.3341 50.3509 96.4451L50.945 98.3549ZM52.8341 97.4496C53.0332 97.2765 53.4992 97.0772 54.4568 97.0496L54.3991 95.0504C53.2767 95.0828 52.2427 95.3135 51.5218 95.9404L52.8341 97.4496ZM55.219 95.4383L52.099 91.4033L50.5168 92.6267L53.6368 96.6617L55.219 95.4383ZM52.3079 92.015V92H50.3079V92.015H52.3079ZM51.3079 93H52.7029V91H51.3079V93ZM51.904 92.6014L55.054 96.7864L56.6519 95.5836L53.5019 91.3986L51.904 92.6014ZM54.8529 96.185V97.205H56.8529V96.185H54.8529ZM55.8529 96.205H55.2529V98.205H55.8529V96.205ZM55.2529 96.205C54.2726 96.205 53.3801 96.3107 52.7339 96.6492L53.6619 98.4208C53.8557 98.3193 54.3333 98.205 55.2529 98.205V96.205ZM52.7339 96.6492C51.8752 97.099 51.5679 97.95 51.5679 98.81H53.5679C53.5679 98.6003 53.6036 98.4989 53.622 98.4617C53.6303 98.4448 53.6361 98.4388 53.6377 98.4372C53.6393 98.4356 53.6452 98.4296 53.6619 98.4208L52.7339 96.6492ZM51.5679 98.81C51.5679 99.3375 51.6672 99.8586 51.8538 100.369L53.7321 99.6814C53.6186 99.3714 53.5679 99.0825 53.5679 98.81H51.5679ZM51.8538 100.369C52.0348 100.863 52.2758 101.312 52.5902 101.695L54.1357 100.425C53.99 100.248 53.8511 100.007 53.7321 99.6814L51.8538 100.369ZM53.3629 102.06H56.5279V100.06H53.3629V102.06ZM55.5279 101.06V102.2H57.5279V101.06H55.5279ZM56.5279 101.2H46.4779V103.2H56.5279V101.2ZM47.4779 102.2V101.06H45.4779V102.2H47.4779ZM46.4779 102.06H51.9979V100.06H46.4779V102.06Z" fill="#2E55B8" mask="url(#path-15-outside-8_77_1232)"/>
</g>
<circle id="Ellipse 10" cx="54" cy="54.5" r="35.5" fill="#2F57BE"/>
<g id="center">
<mask id="path-18-outside-9_77_1232" maskUnits="userSpaceOnUse" x="39.5" y="39" width="29" height="30" fill="black">
<rect fill="white" x="39.5" y="39" width="29" height="30"/>
<path d="M52.6722 43.84C53.0722 44.6933 53.3922 45.7067 53.6322 46.88C53.8989 48.0267 54.0322 49.1867 54.0322 50.36C54.0322 50.7067 54.0055 51.1733 53.9522 51.76C55.8189 50.6933 57.8189 50.16 59.9522 50.16C63.7655 50.16 65.6722 52 65.6722 55.68C65.6722 57.44 65.2189 58.7867 64.3122 59.72C63.4055 60.6267 62.0589 61.08 60.2722 61.08C59.2322 61.08 58.3122 60.9733 57.5122 60.76V57.88C58.2855 58.0933 59.1255 58.2 60.0322 58.2C61.2055 58.2 62.0189 58.0133 62.4722 57.64C62.9522 57.24 63.1922 56.5733 63.1922 55.64C63.1922 54.68 62.9389 54.0133 62.4322 53.64C61.9522 53.24 61.0989 53.04 59.8722 53.04C58.6722 53.04 57.4722 53.2267 56.2722 53.6C55.0722 53.9733 53.7122 54.6 52.1922 55.48C50.9655 56.5467 48.9655 57.12 46.1922 57.2L54.5122 67.96V68H50.7922L42.3922 56.84V54.12H43.9922C46.5255 54.12 48.3522 53.8267 49.4722 53.24C50.5922 52.6533 51.1522 51.52 51.1522 49.84C51.1522 48.7733 50.9522 47.6933 50.5522 46.6C50.1522 45.5067 49.6455 44.5867 49.0322 43.84H40.5922V40.8H67.3922V43.84H52.6722Z"/>
</mask>
<path d="M52.6722 43.84C53.0722 44.6933 53.3922 45.7067 53.6322 46.88C53.8989 48.0267 54.0322 49.1867 54.0322 50.36C54.0322 50.7067 54.0055 51.1733 53.9522 51.76C55.8189 50.6933 57.8189 50.16 59.9522 50.16C63.7655 50.16 65.6722 52 65.6722 55.68C65.6722 57.44 65.2189 58.7867 64.3122 59.72C63.4055 60.6267 62.0589 61.08 60.2722 61.08C59.2322 61.08 58.3122 60.9733 57.5122 60.76V57.88C58.2855 58.0933 59.1255 58.2 60.0322 58.2C61.2055 58.2 62.0189 58.0133 62.4722 57.64C62.9522 57.24 63.1922 56.5733 63.1922 55.64C63.1922 54.68 62.9389 54.0133 62.4322 53.64C61.9522 53.24 61.0989 53.04 59.8722 53.04C58.6722 53.04 57.4722 53.2267 56.2722 53.6C55.0722 53.9733 53.7122 54.6 52.1922 55.48C50.9655 56.5467 48.9655 57.12 46.1922 57.2L54.5122 67.96V68H50.7922L42.3922 56.84V54.12H43.9922C46.5255 54.12 48.3522 53.8267 49.4722 53.24C50.5922 52.6533 51.1522 51.52 51.1522 49.84C51.1522 48.7733 50.9522 47.6933 50.5522 46.6C50.1522 45.5067 49.6455 44.5867 49.0322 43.84H40.5922V40.8H67.3922V43.84H52.6722Z" fill="white"/>
<path d="M52.6722 43.84V42.84H51.099L51.7667 44.2644L52.6722 43.84ZM53.6322 46.88L52.6525 47.0804L52.6552 47.0935L52.6582 47.1065L53.6322 46.88ZM53.9522 51.76L52.9563 51.6695L52.7826 53.5801L54.4483 52.6282L53.9522 51.76ZM64.3122 59.72L65.0193 60.4271L65.0244 60.422L65.0295 60.4168L64.3122 59.72ZM57.5122 60.76H56.5122V61.5283L57.2545 61.7262L57.5122 60.76ZM57.5122 57.88L57.7781 56.916L56.5122 56.5668V57.88H57.5122ZM62.4722 57.64L63.1079 58.4119L63.1124 58.4082L62.4722 57.64ZM62.4322 53.64L61.792 54.4082L61.8149 54.4273L61.839 54.4451L62.4322 53.64ZM56.2722 53.6L56.5693 54.5549L56.2722 53.6ZM52.1922 55.48L51.6912 54.6146L51.6083 54.6626L51.536 54.7254L52.1922 55.48ZM46.1922 57.2L46.1634 56.2004L44.199 56.2571L45.4011 57.8117L46.1922 57.2ZM54.5122 67.96H55.5122V67.6185L55.3033 67.3483L54.5122 67.96ZM54.5122 68V69H55.5122V68H54.5122ZM50.7922 68L49.9932 68.6014L50.2933 69H50.7922V68ZM42.3922 56.84H41.3922V57.1743L41.5932 57.4414L42.3922 56.84ZM42.3922 54.12V53.12H41.3922V54.12H42.3922ZM49.4722 53.24L49.9362 54.1258L49.4722 53.24ZM49.0322 43.84L49.8049 43.2053L49.5049 42.84H49.0322V43.84ZM40.5922 43.84H39.5922V44.84H40.5922V43.84ZM40.5922 40.8V39.8H39.5922V40.8H40.5922ZM67.3922 40.8H68.3922V39.8H67.3922V40.8ZM67.3922 43.84V44.84H68.3922V43.84H67.3922ZM51.7667 44.2644C52.1256 45.0301 52.4243 45.9647 52.6525 47.0804L54.6119 46.6796C54.3601 45.4487 54.0188 44.3566 53.5776 43.4156L51.7667 44.2644ZM52.6582 47.1065C52.9076 48.1792 53.0322 49.2632 53.0322 50.36H55.0322C55.0322 49.1102 54.8901 47.8742 54.6062 46.6535L52.6582 47.1065ZM53.0322 50.36C53.0322 50.6628 53.0085 51.0953 52.9563 51.6695L54.9481 51.8505C55.0025 51.2514 55.0322 50.7505 55.0322 50.36H53.0322ZM54.4483 52.6282C56.1651 51.6472 57.9943 51.16 59.9522 51.16V49.16C57.6434 49.16 55.4726 49.7395 53.456 50.8918L54.4483 52.6282ZM59.9522 51.16C61.7134 51.16 62.8491 51.5854 63.5478 52.2596C64.2398 52.9274 64.6722 54.0034 64.6722 55.68H66.6722C66.6722 53.6766 66.1513 51.9926 64.9366 50.8204C63.7286 49.6546 62.0043 49.16 59.9522 49.16V51.16ZM64.6722 55.68C64.6722 57.2737 64.264 58.3345 63.5949 59.0232L65.0295 60.4168C66.1737 59.2389 66.6722 57.6063 66.6722 55.68H64.6722ZM63.6051 59.0129C62.9496 59.6684 61.8997 60.08 60.2722 60.08V62.08C62.218 62.08 63.8615 61.5849 65.0193 60.4271L63.6051 59.0129ZM60.2722 60.08C59.298 60.08 58.4676 59.9798 57.7699 59.7938L57.2545 61.7262C58.1568 61.9668 59.1663 62.08 60.2722 62.08V60.08ZM58.5122 60.76V57.88H56.5122V60.76H58.5122ZM57.2463 58.844C58.1166 59.0841 59.0471 59.2 60.0322 59.2V57.2C59.2039 57.2 58.4544 57.1026 57.7781 56.916L57.2463 58.844ZM60.0322 59.2C61.2416 59.2 62.3674 59.0218 63.1079 58.4119L61.8365 56.8681C61.6703 57.0049 61.1694 57.2 60.0322 57.2V59.2ZM63.1124 58.4082C63.9145 57.7398 64.1922 56.7207 64.1922 55.64H62.1922C62.1922 56.4259 61.9899 56.7402 61.832 56.8718L63.1124 58.4082ZM64.1922 55.64C64.1922 54.5346 63.9005 53.4798 63.0254 52.8349L61.839 54.4451C61.9772 54.5469 62.1922 54.8254 62.1922 55.64H64.1922ZM63.0724 52.8718C62.306 52.2331 61.1402 52.04 59.8722 52.04V54.04C61.0575 54.04 61.5984 54.2469 61.792 54.4082L63.0724 52.8718ZM59.8722 52.04C58.5668 52.04 57.2667 52.2433 55.9751 52.6451L56.5693 54.5549C57.6776 54.21 58.7776 54.04 59.8722 54.04V52.04ZM55.9751 52.6451C54.6822 53.0474 53.2522 53.7108 51.6912 54.6146L52.6932 56.3454C54.1721 55.4892 55.4622 54.8993 56.5693 54.5549L55.9751 52.6451ZM51.536 54.7254C50.5702 55.5652 48.8543 56.1228 46.1634 56.2004L46.221 58.1996C49.0768 58.1172 51.3608 57.5281 52.8484 56.2346L51.536 54.7254ZM45.4011 57.8117L53.7211 68.5717L55.3033 67.3483L46.9833 56.5883L45.4011 57.8117ZM53.5122 67.96V68H55.5122V67.96H53.5122ZM54.5122 67H50.7922V69H54.5122V67ZM51.5912 67.3986L43.1912 56.2386L41.5932 57.4414L49.9932 68.6014L51.5912 67.3986ZM43.3922 56.84V54.12H41.3922V56.84H43.3922ZM42.3922 55.12H43.9922V53.12H42.3922V55.12ZM43.9922 55.12C46.5559 55.12 48.59 54.831 49.9362 54.1258L49.0082 52.3542C48.1144 52.8223 46.4952 53.12 43.9922 53.12V55.12ZM49.9362 54.1258C51.4949 53.3094 52.1522 51.75 52.1522 49.84H50.1522C50.1522 51.29 49.6895 51.9973 49.0082 52.3542L49.9362 54.1258ZM52.1522 49.84C52.1522 48.6459 51.9279 47.4498 51.4913 46.2564L49.6131 46.9436C49.9765 47.9369 50.1522 48.9008 50.1522 49.84H52.1522ZM51.4913 46.2564C51.0603 45.0784 50.5026 44.0547 49.8049 43.2053L48.2595 44.4747C48.7884 45.1187 49.2441 45.935 49.6131 46.9436L51.4913 46.2564ZM49.0322 42.84H40.5922V44.84H49.0322V42.84ZM41.5922 43.84V40.8H39.5922V43.84H41.5922ZM40.5922 41.8H67.3922V39.8H40.5922V41.8ZM66.3922 40.8V43.84H68.3922V40.8H66.3922ZM67.3922 42.84H52.6722V44.84H67.3922V42.84Z" fill="white" mask="url(#path-18-outside-9_77_1232)"/>
</g>
</g>
</svg>
