<svg width="28" height="28" viewBox="0 0 28 28" fill="none" xmlns="http://www.w3.org/2000/svg">
<mask id="path-1-outside-1_67_18" maskUnits="userSpaceOnUse" x="-1" y="-1" width="30" height="30" fill="black">
<rect fill="white" x="-1" y="-1" width="30" height="30"/>
<path d="M12.6722 3.84C13.0722 4.69333 13.3922 5.70667 13.6322 6.88C13.8989 8.02667 14.0322 9.18667 14.0322 10.36C14.0322 10.7067 14.0055 11.1733 13.9522 11.76C15.8189 10.6933 17.8189 10.16 19.9522 10.16C23.7655 10.16 25.6722 12 25.6722 15.68C25.6722 17.44 25.2189 18.7867 24.3122 19.72C23.4055 20.6267 22.0589 21.08 20.2722 21.08C19.2322 21.08 18.3122 20.9733 17.5122 20.76V17.88C18.2855 18.0933 19.1255 18.2 20.0322 18.2C21.2055 18.2 22.0189 18.0133 22.4722 17.64C22.9522 17.24 23.1922 16.5733 23.1922 15.64C23.1922 14.68 22.9389 14.0133 22.4322 13.64C21.9522 13.24 21.0989 13.04 19.8722 13.04C18.6722 13.04 17.4722 13.2267 16.2722 13.6C15.0722 13.9733 13.7122 14.6 12.1922 15.48C10.9655 16.5467 8.96552 17.12 6.19219 17.2L14.5122 27.96V28H10.7922L2.39219 16.84V14.12H3.99219C6.52552 14.12 8.35219 13.8267 9.47219 13.24C10.5922 12.6533 11.1522 11.52 11.1522 9.84C11.1522 8.77333 10.9522 7.69333 10.5522 6.6C10.1522 5.50667 9.64552 4.58667 9.03219 3.84H0.592187V0.8H27.3922V3.84H12.6722Z"/>
</mask>
<path d="M12.6722 3.84C13.0722 4.69333 13.3922 5.70667 13.6322 6.88C13.8989 8.02667 14.0322 9.18667 14.0322 10.36C14.0322 10.7067 14.0055 11.1733 13.9522 11.76C15.8189 10.6933 17.8189 10.16 19.9522 10.16C23.7655 10.16 25.6722 12 25.6722 15.68C25.6722 17.44 25.2189 18.7867 24.3122 19.72C23.4055 20.6267 22.0589 21.08 20.2722 21.08C19.2322 21.08 18.3122 20.9733 17.5122 20.76V17.88C18.2855 18.0933 19.1255 18.2 20.0322 18.2C21.2055 18.2 22.0189 18.0133 22.4722 17.64C22.9522 17.24 23.1922 16.5733 23.1922 15.64C23.1922 14.68 22.9389 14.0133 22.4322 13.64C21.9522 13.24 21.0989 13.04 19.8722 13.04C18.6722 13.04 17.4722 13.2267 16.2722 13.6C15.0722 13.9733 13.7122 14.6 12.1922 15.48C10.9655 16.5467 8.96552 17.12 6.19219 17.2L14.5122 27.96V28H10.7922L2.39219 16.84V14.12H3.99219C6.52552 14.12 8.35219 13.8267 9.47219 13.24C10.5922 12.6533 11.1522 11.52 11.1522 9.84C11.1522 8.77333 10.9522 7.69333 10.5522 6.6C10.1522 5.50667 9.64552 4.58667 9.03219 3.84H0.592187V0.8H27.3922V3.84H12.6722Z" fill="#0F0F0F"/>
<path d="M12.6722 3.84V2.84H11.099L11.7667 4.26443L12.6722 3.84ZM13.6322 6.88L12.6525 7.0804L12.6552 7.09349L12.6582 7.10651L13.6322 6.88ZM13.9522 11.76L12.9563 11.6695L12.7826 13.5801L14.4483 12.6282L13.9522 11.76ZM24.3122 19.72L25.0193 20.4271L25.0244 20.422L25.0295 20.4168L24.3122 19.72ZM17.5122 20.76H16.5122V21.5283L17.2545 21.7262L17.5122 20.76ZM17.5122 17.88L17.7781 16.916L16.5122 16.5668V17.88H17.5122ZM22.4722 17.64L23.1079 18.4119L23.1124 18.4082L22.4722 17.64ZM22.4322 13.64L21.792 14.4082L21.8149 14.4273L21.839 14.4451L22.4322 13.64ZM16.2722 13.6L16.5693 14.5549L16.5693 14.5549L16.2722 13.6ZM12.1922 15.48L11.6912 14.6146L11.6083 14.6626L11.536 14.7254L12.1922 15.48ZM6.19219 17.2L6.16335 16.2004L4.19901 16.2571L5.4011 17.8117L6.19219 17.2ZM14.5122 27.96H15.5122V27.6185L15.3033 27.3483L14.5122 27.96ZM14.5122 28V29H15.5122V28H14.5122ZM10.7922 28L9.99322 28.6014L10.2933 29H10.7922V28ZM2.39219 16.84H1.39219V17.1743L1.59322 17.4414L2.39219 16.84ZM2.39219 14.12V13.12H1.39219V14.12H2.39219ZM9.47219 13.24L9.9362 14.1258L9.9362 14.1258L9.47219 13.24ZM9.03219 3.84L9.80491 3.20526L9.50488 2.84H9.03219V3.84ZM0.592187 3.84H-0.407813V4.84H0.592187V3.84ZM0.592187 0.8V-0.2H-0.407813V0.8H0.592187ZM27.3922 0.8H28.3922V-0.2H27.3922V0.8ZM27.3922 3.84V4.84H28.3922V3.84H27.3922ZM11.7667 4.26443C12.1256 5.03008 12.4243 5.96466 12.6525 7.0804L14.6119 6.6796C14.3601 5.44867 14.0188 4.35659 13.5776 3.41557L11.7667 4.26443ZM12.6582 7.10651C12.9076 8.17916 13.0322 9.26317 13.0322 10.36H15.0322C15.0322 9.11016 14.8901 7.87417 14.6062 6.65349L12.6582 7.10651ZM13.0322 10.36C13.0322 10.6628 13.0085 11.0953 12.9563 11.6695L14.9481 11.8505C15.0025 11.2514 15.0322 10.7505 15.0322 10.36H13.0322ZM14.4483 12.6282C16.1651 11.6472 17.9943 11.16 19.9522 11.16V9.16C17.6434 9.16 15.4726 9.73945 13.456 10.8918L14.4483 12.6282ZM19.9522 11.16C21.7134 11.16 22.8491 11.5854 23.5478 12.2596C24.2398 12.9274 24.6722 14.0034 24.6722 15.68H26.6722C26.6722 13.6766 26.1513 11.9926 24.9366 10.8204C23.7286 9.65463 22.0043 9.16 19.9522 9.16V11.16ZM24.6722 15.68C24.6722 17.2737 24.264 18.3345 23.5949 19.0232L25.0295 20.4168C26.1737 19.2389 26.6722 17.6063 26.6722 15.68H24.6722ZM23.6051 19.0129C22.9496 19.6684 21.8997 20.08 20.2722 20.08V22.08C22.218 22.08 23.8615 21.5849 25.0193 20.4271L23.6051 19.0129ZM20.2722 20.08C19.298 20.08 18.4676 19.9798 17.7699 19.7938L17.2545 21.7262C18.1568 21.9668 19.1663 22.08 20.2722 22.08V20.08ZM18.5122 20.76V17.88H16.5122V20.76H18.5122ZM17.2463 18.844C18.1166 19.0841 19.0471 19.2 20.0322 19.2V17.2C19.2039 17.2 18.4544 17.1026 17.7781 16.916L17.2463 18.844ZM20.0322 19.2C21.2416 19.2 22.3674 19.0218 23.1079 18.4119L21.8365 16.8681C21.6703 17.0049 21.1694 17.2 20.0322 17.2V19.2ZM23.1124 18.4082C23.9145 17.7398 24.1922 16.7207 24.1922 15.64H22.1922C22.1922 16.4259 21.9899 16.7402 21.832 16.8718L23.1124 18.4082ZM24.1922 15.64C24.1922 14.5346 23.9005 13.4798 23.0254 12.8349L21.839 14.4451C21.9772 14.5469 22.1922 14.8254 22.1922 15.64H24.1922ZM23.0724 12.8718C22.306 12.2331 21.1402 12.04 19.8722 12.04V14.04C21.0575 14.04 21.5984 14.2469 21.792 14.4082L23.0724 12.8718ZM19.8722 12.04C18.5668 12.04 17.2667 12.2433 15.9751 12.6451L16.5693 14.5549C17.6776 14.21 18.7776 14.04 19.8722 14.04V12.04ZM15.9751 12.6451C14.6822 13.0474 13.2522 13.7108 11.6912 14.6146L12.6932 16.3454C14.1721 15.4892 15.4622 14.8993 16.5693 14.5549L15.9751 12.6451ZM11.536 14.7254C10.5702 15.5652 8.85428 16.1228 6.16335 16.2004L6.22102 18.1996C9.07676 18.1172 11.3608 17.5281 12.8484 16.2346L11.536 14.7254ZM5.4011 17.8117L13.7211 28.5717L15.3033 27.3483L6.98328 16.5883L5.4011 17.8117ZM13.5122 27.96V28H15.5122V27.96H13.5122ZM14.5122 27H10.7922V29H14.5122V27ZM11.5912 27.3986L3.19116 16.2386L1.59322 17.4414L9.99322 28.6014L11.5912 27.3986ZM3.39219 16.84V14.12H1.39219V16.84H3.39219ZM2.39219 15.12H3.99219V13.12H2.39219V15.12ZM3.99219 15.12C6.55587 15.12 8.58998 14.831 9.9362 14.1258L9.00818 12.3542C8.11439 12.8223 6.49518 13.12 3.99219 13.12V15.12ZM9.9362 14.1258C11.4949 13.3094 12.1522 11.75 12.1522 9.84H10.1522C10.1522 11.29 9.68945 11.9973 9.00818 12.3542L9.9362 14.1258ZM12.1522 9.84C12.1522 8.64586 11.9279 7.44976 11.4913 6.25642L9.61306 6.94358C9.97648 7.93691 10.1522 8.9008 10.1522 9.84H12.1522ZM11.4913 6.25642C11.0603 5.07836 10.5026 4.05467 9.80491 3.20526L8.25946 4.47474C8.7884 5.11867 9.24406 5.93497 9.61306 6.94358L11.4913 6.25642ZM9.03219 2.84H0.592187V4.84H9.03219V2.84ZM1.59219 3.84V0.8H-0.407813V3.84H1.59219ZM0.592187 1.8H27.3922V-0.2H0.592187V1.8ZM26.3922 0.8V3.84H28.3922V0.8H26.3922ZM27.3922 2.84H12.6722V4.84H27.3922V2.84Z" fill="#060606" mask="url(#path-1-outside-1_67_18)"/>
</svg>
